<?xml version="1.0" encoding="UTF-8" standalone="no"?>
<!DOCTYPE svg PUBLIC "-//W3C//DTD SVG 1.1//EN" "http://www.w3.org/Graphics/SVG/1.1/DTD/svg11.dtd">
<!-- Generated by Microsoft Visio, SVG Export architecture.svg Page-1 -->
<svg xmlns="http://www.w3.org/2000/svg" xmlns:xlink="http://www.w3.org/1999/xlink" xmlns:ev="http://www.w3.org/2001/xml-events"
		xmlns:v="http://schemas.microsoft.com/visio/2003/SVGExtensions/" width="13.7733in" height="8.22959in"
		viewBox="0 0 991.678 592.531" xml:space="preserve" color-interpolation-filters="sRGB" class="st17">
	<v:documentProperties v:langID="2057" v:metric="true" v:viewMarkup="false">
		<v:userDefs>
			<v:ud v:nameU="msvNoAutoConnect" v:val="VT0(1):26"/>
		</v:userDefs>
	</v:documentProperties>

	<style type="text/css">
	<![CDATA[
		.st1 {fill:#0078d7;stroke:none;stroke-linecap:butt;stroke-width:0.75}
		.st2 {fill:#0078d7;font-family:Segoe UI;font-size:0.75em}
		.st3 {font-size:1em}
		.st4 {marker-start:url(#mrkr1-10);stroke:#000000;stroke-linecap:round;stroke-linejoin:round;stroke-width:0.75}
		.st5 {fill:#000000;fill-opacity:1;stroke:#000000;stroke-opacity:1;stroke-width:0.22935779816514}
		.st6 {fill:#ffffff;stroke:none;stroke-linecap:butt;stroke-width:7.2}
		.st7 {fill:#000000;font-family:Calibri;font-size:0.666664em}
		.st8 {marker-end:url(#mrkr1-29);stroke:#000000;stroke-linecap:round;stroke-linejoin:round;stroke-width:0.75}
		.st9 {fill:#0078d7}
		.st10 {stroke:none;stroke-linecap:butt;stroke-width:0.75}
		.st11 {fill:#ffffff;stroke:#ffffff;stroke-linecap:butt;stroke-width:1.275}
		.st12 {fill:#0078d7;stroke:none;stroke-linecap:butt;stroke-width:0.6375}
		.st13 {fill:#ffffff;stroke:none;stroke-linecap:butt}
		.st14 {fill:#0070c0}
		.st15 {stroke:none;stroke-linecap:butt;stroke-width:1.53}
		.st16 {fill:#0070c0;font-family:Calibri;font-size:0.666664em}
		.st17 {fill:none;fill-rule:evenodd;font-size:12px;overflow:visible;stroke-linecap:square;stroke-miterlimit:3}
	]]>
	</style>

	<defs id="Markers">
		<g id="lend1">
			<path d="M 1 -1 L 0 0 L 1 1 " style="stroke-linecap:round;stroke-linejoin:round;fill:none"/>
		</g>
		<marker id="mrkr1-10" class="st5" v:arrowType="1" v:arrowSize="2" orient="auto" markerUnits="strokeWidth"
				overflow="visible">
			<use xlink:href="#lend1" transform="scale(4.36) "/>
		</marker>
		<marker id="mrkr1-29" class="st5" v:arrowType="1" v:arrowSize="2" orient="auto" markerUnits="strokeWidth"
				overflow="visible">
			<use xlink:href="#lend1" transform="scale(-4.36,-4.36) "/>
		</marker>
	</defs>
	<g v:mID="0" v:index="1" v:groupContext="foregroundPage">
		<title>Page-1</title>
		<v:pageProperties v:drawingScale="0.0393701" v:pageScale="0.0393701" v:drawingUnits="24" v:shadowOffsetX="8.50394"
				v:shadowOffsetY="-8.50394"/>
		<v:layer v:name="Connector" v:index="0"/>
		<g id="shape8-1" v:mID="8" v:groupContext="shape" transform="translate(259.286,-416.471)">
			<title>Azure Functions (nc)</title>
			<desc>ActiveHashflags function</desc>
			<v:textBlock v:margins="rect(0,0,0,0)" v:tabSpace="42.5197"/>
			<v:textRect cx="13.1766" cy="605.998" width="65.48" height="29.25"/>
			<path d="M23.6 563.28 L13.94 563.28 L8.73 577.96 L15.08 578 L10.12 592.53 L23.8 573.15 L17.16 573.15 L23.6 563.28 ZM0.2
						 578.1 L1.74 579.84 L1.79 579.89 L8.73 586.53 C8.98 586.78 9.53 586.83 9.82 586.53 C10.12 586.23 10.12 585.69
						 9.82 585.39 L2.63 578.1 C2.34 577.81 2.34 577.26 2.63 576.96 L9.67 569.92 C10.07 569.63 9.97 569.08 9.67
						 568.78 C9.33 568.49 8.88 568.49 8.58 568.78 L1.74 575.43 L0.2 576.96 C-0.04 577.26 -0.09 577.81 0.2 578.1
						 ZM31.54 578.1 C31.83 577.81 31.79 577.26 31.54 576.96 L30 575.43 L23.16 568.78 C22.86 568.49 22.42 568.49
						 22.07 568.78 C21.77 569.08 21.67 569.63 22.07 569.92 L29.26 576.96 C29.55 577.26 29.55 577.81 29.26 578.1
						 L21.92 585.39 C21.62 585.69 21.62 586.23 21.92 586.53 C22.22 586.83 22.76 586.78 23.01 586.53 L29.8 579.79
						 L29.85 579.74 L31.54 578.1 Z" class="st1"/>
			<text x="-18.22" y="603.3" class="st2" v:langID="2057"><v:paragraph v:horizAlign="1"/><v:tabList/>ActiveHashflags <tspan
						x="-3.2" dy="1.2em" class="st3">function</tspan></text>		</g>
		<g id="shape9-5" v:mID="9" v:groupContext="shape" v:layerMember="0" transform="translate(70.4784,-424.01)">
			<title>Dynamic connector</title>
			<desc>Get initial data</desc>
			<v:textBlock v:margins="rect(4,4,4,4)" v:tabSpace="42.5197"/>
			<v:textRect cx="94.4384" cy="585.444" width="57.75" height="17.6036"/>
			<path d="M0 585.44 L188.88 585.44" class="st4"/>
			<rect v:rectContext="textBkgnd" x="70.4741" y="580.644" width="47.9287" height="9.59985" class="st6"/>
			<text x="70.47" y="587.84" class="st7" v:langID="2057"><v:paragraph v:horizAlign="1"/><v:tabList/>Get initial data</text>		</g>
		<g id="group18-13" transform="translate(480.668,-418.574)" v:mID="18" v:groupContext="group">
			<title>Storage blob</title>
			<desc>activeHashflags blob</desc>
			<g id="shape19-14" v:mID="19" v:groupContext="shape">
				<title>Sheet.19</title>
				<path d="M21.69 567.49 L7.23 567.49 L0 580.01 L7.23 592.53 L21.69 592.53 L28.92 580.01 L21.69 567.49 ZM21.73 585.6
							 C21.73 586.68 20.85 587.56 19.77 587.56 L9.15 587.56 C8.07 587.56 7.19 586.68 7.19 585.6 L7.19 574.41
							 C7.19 573.33 8.07 572.46 9.15 572.46 L17.03 572.46 C17.81 572.46 18.49 572.46 18.49 572.46 L18.71 572.46
							 L21.73 575.44 L21.73 577.03 L21.73 585.6 Z" class="st1"/>
			</g>
			<g id="shape20-16" v:mID="20" v:groupContext="shape" transform="translate(12.1013,-8.085)">
				<title>Sheet.20</title>
				<path d="M1.23 590.1 C1.21 589.99 1.18 589.89 1.15 589.81 C1.11 589.73 1.07 589.67 1.02 589.62 C0.98 589.58 0.92
							 589.54 0.86 589.52 C0.8 589.5 0.73 589.49 0.66 589.49 C0.53 589.49 0.42 589.53 0.33 589.59 C0.25 589.65
							 0.18 589.74 0.13 589.87 C0.08 589.99 0.05 590.15 0.03 590.34 C0.01 590.52 0 590.74 0 590.99 C0 591.29
							 0.01 591.54 0.04 591.74 C0.06 591.94 0.1 592.1 0.15 592.21 C0.2 592.33 0.27 592.41 0.35 592.46 C0.43
							 592.51 0.53 592.53 0.64 592.53 C0.73 592.53 0.8 592.52 0.87 592.49 C0.93 592.46 0.99 592.42 1.04 592.37
							 C1.09 592.31 1.13 592.24 1.16 592.16 C1.2 592.08 1.22 591.98 1.24 591.87 C1.26 591.76 1.28 591.64 1.29
							 591.5 C1.29 591.36 1.3 591.21 1.3 591.04 C1.3 590.84 1.29 590.66 1.28 590.51 C1.27 590.35 1.26 590.22
							 1.23 590.1 Z" class="st1"/>
			</g>
			<g id="shape21-18" v:mID="21" v:groupContext="shape" transform="translate(15.5167,-13.9237)">
				<title>Sheet.21</title>
				<path d="M1.23 590.1 C1.21 589.99 1.18 589.89 1.15 589.81 C1.11 589.73 1.07 589.67 1.02 589.62 C0.98 589.58 0.92
							 589.54 0.86 589.52 C0.8 589.5 0.73 589.49 0.65 589.49 C0.53 589.49 0.42 589.53 0.33 589.59 C0.25 589.65
							 0.18 589.74 0.13 589.87 C0.08 589.99 0.05 590.15 0.03 590.34 C0.01 590.52 0 590.74 0 590.99 C0 591.29
							 0.01 591.54 0.04 591.74 C0.06 591.94 0.1 592.1 0.15 592.21 C0.2 592.33 0.27 592.41 0.35 592.46 C0.43
							 592.51 0.53 592.53 0.64 592.53 C0.73 592.53 0.8 592.52 0.87 592.49 C0.93 592.46 0.99 592.42 1.04 592.37
							 C1.09 592.31 1.13 592.24 1.16 592.16 C1.2 592.08 1.22 591.98 1.24 591.87 C1.26 591.76 1.28 591.64 1.29
							 591.5 C1.29 591.36 1.3 591.21 1.3 591.04 C1.3 590.84 1.29 590.66 1.28 590.51 C1.27 590.35 1.25 590.22
							 1.23 590.1 Z" class="st1"/>
			</g>
			<g id="shape22-20" v:mID="22" v:groupContext="shape" transform="translate(8.2605,-6.04125)">
				<title>Sheet.22</title>
				<path d="M9.98 579.58 C9.71 579.57 9.26 579.57 8.76 579.57 L0.88 579.57 C0.39 579.57 0 579.97 0 580.45 L0 591.65
							 C0 592.14 0.39 592.53 0.88 592.53 L11.51 592.53 C11.99 592.53 12.4 592.14 12.4 591.65 L12.4 582.03 L9.98
							 582.03 L9.98 579.58 L9.98 579.58 ZM3.27 581.8 C3.27 581.77 3.28 581.74 3.29 581.72 C3.3 581.69 3.31
							 581.67 3.32 581.66 C3.34 581.64 3.36 581.63 3.39 581.61 L4.3 581.02 C4.31 581.01 4.33 581 4.34 580.99
							 C4.36 580.99 4.38 580.98 4.41 580.98 C4.43 580.98 4.47 580.98 4.51 580.97 C4.55 580.97 4.61 580.97 4.68
							 580.97 C4.76 580.97 4.83 580.97 4.88 580.98 C4.93 580.98 4.97 580.99 5 580.99 C5.02 581 5.04 581.01
							 5.05 581.03 C5.06 581.04 5.06 581.05 5.06 581.08 L5.06 584.59 L5.76 584.59 C5.78 584.59 5.79 584.6 5.81
							 584.61 C5.83 584.62 5.84 584.64 5.85 584.67 C5.87 584.69 5.87 584.73 5.88 584.77 C5.88 584.81 5.89 584.87
							 5.89 584.93 C5.89 584.99 5.88 585.04 5.88 585.09 C5.87 585.13 5.86 585.16 5.85 585.19 C5.84 585.21 5.82
							 585.23 5.81 585.24 C5.79 585.25 5.78 585.26 5.76 585.26 L3.41 585.26 C3.39 585.26 3.37 585.25 3.36 585.24
							 C3.34 585.23 3.33 585.21 3.32 585.19 C3.3 585.16 3.29 585.13 3.29 585.09 C3.28 585.04 3.28 584.99 3.28
							 584.93 C3.28 584.87 3.28 584.81 3.29 584.77 C3.29 584.73 3.3 584.69 3.31 584.67 C3.33 584.64 3.34 584.62
							 3.35 584.61 C3.37 584.6 3.39 584.59 3.41 584.59 L4.2 584.59 L4.2 581.82 L3.52 582.2 C3.47 582.22 3.42
							 582.24 3.39 582.24 C3.36 582.25 3.34 582.24 3.32 582.22 C3.3 582.21 3.29 582.17 3.28 582.13 C3.27 582.08
							 3.27 582.02 3.27 581.93 C3.27 581.88 3.27 581.84 3.27 581.8 ZM5.93 589.87 C5.88 590.15 5.79 590.38 5.66
							 590.58 C5.54 590.77 5.38 590.92 5.18 591.02 C4.98 591.12 4.74 591.17 4.45 591.17 C4.16 591.17 3.92 591.12
							 3.73 591.02 C3.54 590.92 3.38 590.78 3.27 590.59 C3.16 590.41 3.08 590.18 3.04 589.9 C2.99 589.63 2.97
							 589.33 2.97 588.99 C2.97 588.65 3 588.34 3.05 588.07 C3.11 587.79 3.2 587.56 3.32 587.36 C3.45 587.17
							 3.61 587.02 3.81 586.92 C4.01 586.82 4.25 586.77 4.53 586.77 C4.82 586.77 5.07 586.82 5.26 586.92 C5.45
							 587.02 5.6 587.16 5.71 587.35 C5.83 587.53 5.9 587.76 5.95 588.03 C5.99 588.31 6.01 588.61 6.01 588.95
							 C6.01 589.29 5.99 589.6 5.93 589.87 ZM9.29 590.93 C9.29 590.97 9.28 591 9.26 591.03 C9.25 591.05 9.24
							 591.07 9.22 591.08 C9.21 591.09 9.19 591.1 9.17 591.1 L6.82 591.1 C6.8 591.1 6.79 591.09 6.77 591.08
							 C6.76 591.07 6.74 591.05 6.73 591.03 C6.72 591 6.71 590.97 6.7 590.93 C6.7 590.88 6.69 590.83 6.69 590.77
							 C6.69 590.71 6.7 590.65 6.7 590.61 C6.71 590.57 6.72 590.53 6.73 590.51 C6.74 590.48 6.75 590.46 6.77
							 590.45 C6.78 590.44 6.8 590.43 6.82 590.43 L7.61 590.43 L7.61 587.66 L6.93 588.04 C6.88 588.06 6.84
							 588.08 6.81 588.08 C6.78 588.09 6.75 588.08 6.73 588.06 C6.71 588.04 6.7 588.01 6.69 587.97 C6.69 587.92
							 6.68 587.86 6.68 587.77 C6.68 587.72 6.69 587.68 6.69 587.64 C6.69 587.61 6.7 587.58 6.7 587.56 C6.71
							 587.53 6.73 587.51 6.74 587.5 C6.76 587.48 6.78 587.47 6.8 587.45 L7.72 586.85 C7.73 586.85 7.74 586.84
							 7.76 586.83 C7.77 586.83 7.8 586.82 7.82 586.82 C7.85 586.82 7.88 586.81 7.93 586.81 C7.97 586.81 8.02
							 586.81 8.09 586.81 C8.18 586.81 8.24 586.81 8.3 586.82 C8.35 586.82 8.39 586.83 8.41 586.83 C8.44 586.84
							 8.46 586.85 8.46 586.87 C8.47 586.88 8.48 586.89 8.48 586.91 L8.48 590.43 L9.17 590.43 C9.19 590.43
							 9.21 590.44 9.23 590.45 C9.24 590.46 9.26 590.48 9.27 590.51 C9.28 590.53 9.29 590.57 9.3 590.61 C9.3
							 590.65 9.3 590.71 9.3 590.77 C9.3 590.83 9.3 590.88 9.29 590.93 ZM9.35 584.04 C9.29 584.31 9.2 584.54
							 9.08 584.74 C8.95 584.93 8.79 585.08 8.59 585.18 C8.39 585.28 8.15 585.33 7.87 585.33 C7.57 585.33 7.33
							 585.28 7.14 585.18 C6.95 585.08 6.8 584.94 6.69 584.75 C6.58 584.57 6.5 584.34 6.45 584.07 C6.41 583.79
							 6.38 583.49 6.38 583.15 C6.38 582.81 6.41 582.5 6.47 582.23 C6.52 581.95 6.61 581.72 6.74 581.52 C6.86
							 581.33 7.02 581.18 7.22 581.08 C7.42 580.98 7.66 580.93 7.95 580.93 C8.24 580.93 8.48 580.98 8.67 581.08
							 C8.87 581.18 9.02 581.32 9.13 581.51 C9.24 581.69 9.32 581.92 9.36 582.19 C9.41 582.47 9.43 582.77 9.43
							 583.11 C9.43 583.45 9.4 583.76 9.35 584.04 Z" class="st1"/>
			</g>
			<g id="shape18-22" v:mID="18" v:groupContext="groupContent">
				<v:textBlock v:margins="rect(0,0,0,0)" v:tabSpace="42.5197" v:verticalAlign="0"/>
				<v:textRect cx="14.46" cy="597.932" width="83.88" height="10.8036"/>
				<text x="-26.57" y="600.63" class="st2" v:langID="2057"><v:paragraph v:horizAlign="1"/><v:tabList/>activeHashflags blob</text>			</g>
		</g>
		<g id="shape23-24" v:mID="23" v:groupContext="shape" v:layerMember="0" transform="translate(290.958,-424.01)">
			<title>Dynamic connector.23</title>
			<desc>Store JSON</desc>
			<v:textBlock v:margins="rect(4,4,4,4)" v:tabSpace="42.5197"/>
			<v:textRect cx="94.2102" cy="585.444" width="45.66" height="17.6036"/>
			<path d="M0 585.44 L188.42 585.44" class="st8"/>
			<rect v:rectContext="textBkgnd" x="76.2905" y="580.644" width="35.8396" height="9.59985" class="st6"/>
			<text x="76.29" y="587.84" class="st7" v:langID="2057"><v:paragraph v:horizAlign="1"/><v:tabList/>Store JSON</text>		</g>
		<g id="group27-32" transform="translate(262.768,-541.777)" v:mID="27" v:groupContext="group">
			<title>Scheduler</title>
			<desc>1 hour timer</desc>
			<g id="shape28-33" v:mID="28" v:groupContext="shape">
				<title>Sheet.28</title>
				<path d="M13.45 583.29 L13.45 584.43 L13.45 586.23 C13.27 586.21 12.36 586.08 12.2 586.04 C11.59 585.91 10.99 585.72
							 10.4 585.48 C10.21 585.41 10.02 585.33 9.83 585.24 L9.56 585.11 L9.27 584.97 L9.01 584.83 L8.74 584.68
							 C8.56 584.57 8.39 584.47 8.21 584.35 C7.51 583.9 6.87 583.36 6.26 582.77 C5.66 582.17 5.13 581.49 4.67
							 580.77 C4.19 580.05 3.8 579.26 3.5 578.45 C2.89 576.82 2.62 575.05 2.74 573.31 C2.86 571.58 3.37 569.89
							 4.18 568.4 C4.98 566.92 6.07 565.64 7.3 564.66 C7.92 564.17 8.56 563.75 9.22 563.4 C9.88 563.05 10.55
							 562.77 11.2 562.54 C12.53 562.1 13.82 561.9 14.97 561.87 C16.12 561.83 17.13 561.95 17.95 562.11 C18.77
							 562.26 19.4 562.47 19.83 562.62 C20.05 562.69 20.21 562.75 20.32 562.8 L20.48 562.86 L20.49 562.86 C20.56
							 562.89 20.64 562.86 20.68 562.79 C20.72 562.72 20.7 562.62 20.62 562.58 L20.46 562.49 C20.36 562.43
							 20.2 562.35 19.99 562.24 C19.57 562.03 18.95 561.74 18.11 561.47 C17.28 561.19 16.22 560.95 14.99 560.86
							 C13.75 560.77 12.32 560.85 10.82 561.22 C9.32 561.59 7.74 562.25 6.26 563.26 C4.78 564.27 3.4 565.64
							 2.33 567.31 C1.26 568.97 0.49 570.94 0.19 573.03 C0.04 574.08 -0 575.15 0.09 576.22 C0.18 577.3 0.38
							 578.36 0.71 579.4 C1.04 580.43 1.48 581.43 2.03 582.37 C2.59 583.3 3.25 584.17 3.99 584.96 C4.73 585.74
							 5.56 586.43 6.44 587.02 C6.66 587.17 6.88 587.31 7.11 587.44 L7.45 587.64 L7.81 587.83 L8.14 588 L8.5
							 588.17 C8.73 588.27 8.97 588.37 9.21 588.46 C10.19 588.85 11.2 589.12 12.2 589.28 C12.54 589.34 13.11
							 589.39 13.45 589.41 L13.45 592.53 L17.87 587.91 L13.45 583.29 Z" class="st9"/>
				<path d="M13.45 583.29 L13.45 584.43 L13.45 586.23 C13.27 586.21 12.36 586.08 12.2 586.04 C11.59 585.91 10.99 585.72
							 10.4 585.48 C10.21 585.41 10.02 585.33 9.83 585.24 L9.56 585.11 L9.27 584.97 L9.01 584.83 L8.74 584.68
							 C8.56 584.57 8.39 584.47 8.21 584.35 C7.51 583.9 6.87 583.36 6.26 582.77 C5.66 582.17 5.13 581.49 4.67
							 580.77 C4.19 580.05 3.8 579.26 3.5 578.45 C2.89 576.82 2.62 575.05 2.74 573.31 C2.86 571.58 3.37 569.89
							 4.18 568.4 C4.98 566.92 6.07 565.64 7.3 564.66 C7.92 564.17 8.56 563.75 9.22 563.4 C9.88 563.05 10.55
							 562.77 11.2 562.54 C12.53 562.1 13.82 561.9 14.97 561.87 C16.12 561.83 17.13 561.95 17.95 562.11 C18.77
							 562.26 19.4 562.47 19.83 562.62 C20.05 562.69 20.21 562.75 20.32 562.8 L20.48 562.86 L20.49 562.86 C20.56
							 562.89 20.64 562.86 20.68 562.79 C20.72 562.72 20.7 562.62 20.62 562.58 L20.46 562.49 C20.36 562.43
							 20.2 562.35 19.99 562.24 C19.57 562.03 18.95 561.74 18.11 561.47 C17.28 561.19 16.22 560.95 14.99 560.86
							 C13.75 560.77 12.32 560.85 10.82 561.22 C9.32 561.59 7.74 562.25 6.26 563.26 C4.78 564.27 3.4 565.64
							 2.33 567.31 C1.26 568.97 0.49 570.94 0.19 573.03 C0.04 574.08 -0 575.15 0.09 576.22 C0.18 577.3 0.38
							 578.36 0.71 579.4 C1.04 580.43 1.48 581.43 2.03 582.37 C2.59 583.3 3.25 584.17 3.99 584.96 C4.73 585.74
							 5.56 586.43 6.44 587.02 C6.66 587.17 6.88 587.31 7.11 587.44 L7.45 587.64 L7.81 587.83 L8.14 588 L8.5
							 588.17 C8.73 588.27 8.97 588.37 9.21 588.46 C10.19 588.85 11.2 589.12 12.2 589.28 C12.54 589.34 13.11
							 589.39 13.45 589.41 L13.45 592.53 L17.87 587.91" class="st10"/>
			</g>
			<g id="shape29-36" v:mID="29" v:groupContext="shape" transform="translate(5.18475,-8.7405)">
				<title>Sheet.29</title>
				<path d="M9.65 572.73 C4.17 572.73 0 577.17 0 582.64 C-0 587.18 3 591.02 7.22 592.19 L7.22 591.35 C7.22 590.97 7.48
							 590.62 7.84 590.47 C7.96 590.43 7.72 590.47 7.84 590.47 C8.09 590.47 8.4 590.5 8.58 590.68 L10.44 592.53
							 C15.55 592.13 19.59 587.85 19.59 582.64 C19.59 577.18 15.13 572.73 9.65 572.73 ZM2.26 583.48 C1.78 583.48
							 1.39 583.09 1.39 582.61 C1.39 582.13 1.78 581.74 2.26 581.74 C2.74 581.74 3.14 582.13 3.14 582.61 C3.14
							 583.09 2.74 583.48 2.26 583.48 ZM9.65 573.88 C10.14 573.88 10.53 574.27 10.53 574.76 C10.53 575.24 10.14
							 575.63 9.65 575.63 C9.17 575.63 8.78 575.24 8.78 574.76 C8.78 574.27 9.17 573.88 9.65 573.88 ZM14.84
							 587.67 L14.74 587.76 C14.11 588.39 13.1 588.39 12.47 587.76 L8.4 583.7 C8.04 583.35 8.23 582.87 8.27
							 582.41 L8.27 582.32 L8.27 578.66 C8.27 577.78 8.99 577.06 9.88 577.06 L10.15 577.06 C11.03 577.06 11.75
							 577.78 11.75 578.66 L11.75 581.85 L15.31 585.4 C15.94 586.03 15.46 587.04 14.84 587.67 ZM17.53 583.48
							 C17.05 583.48 16.66 583.09 16.66 582.61 C16.66 582.13 17.05 581.74 17.53 581.74 C18.01 581.74 18.4 582.13
							 18.4 582.61 C18.4 583.09 18.01 583.48 17.53 583.48 Z" class="st1"/>
			</g>
			<g id="shape27-38" v:mID="27" v:groupContext="groupContent">
				<v:textBlock v:margins="rect(0,0,0,0)" v:tabSpace="42.5197" v:verticalAlign="0"/>
				<v:textRect cx="12.3885" cy="597.932" width="51.01" height="10.8036"/>
				<text x="-12.21" y="600.63" class="st2" v:langID="2057"><v:paragraph v:horizAlign="1"/><v:tabList/>1 hour timer</text>			</g>
		</g>
		<g id="shape35-40" v:mID="35" v:groupContext="shape" v:layerMember="0" transform="translate(269.182,-525.729)">
			<title>Dynamic connector.35</title>
			<path d="M7.09 592.53 L7.09 672.54" class="st8"/>
		</g>
		<g id="shape36-45" v:mID="36" v:groupContext="shape" transform="translate(699.229,-416.471)">
			<title>Azure Functions (nc).36</title>
			<desc>UpdateHashflagState function</desc>
			<v:textBlock v:margins="rect(0,0,0,0)" v:tabSpace="42.5197"/>
			<v:textRect cx="22.6709" cy="605.998" width="84.47" height="29.25"/>
			<path d="M23.6 563.28 L13.94 563.28 L8.73 577.96 L15.08 578 L10.12 592.53 L23.8 573.15 L17.16 573.15 L23.6 563.28 ZM0.2
						 578.1 L1.74 579.84 L1.79 579.89 L8.73 586.53 C8.98 586.78 9.53 586.83 9.82 586.53 C10.12 586.23 10.12 585.69
						 9.82 585.39 L2.63 578.1 C2.34 577.81 2.34 577.26 2.63 576.96 L9.67 569.92 C10.07 569.63 9.97 569.08 9.67
						 568.78 C9.33 568.49 8.88 568.49 8.58 568.78 L1.74 575.43 L0.2 576.96 C-0.04 577.26 -0.09 577.81 0.2 578.1
						 ZM31.54 578.1 C31.83 577.81 31.79 577.26 31.54 576.96 L30 575.43 L23.16 568.78 C22.86 568.49 22.42 568.49
						 22.07 568.78 C21.77 569.08 21.67 569.63 22.07 569.92 L29.26 576.96 C29.55 577.26 29.55 577.81 29.26 578.1
						 L21.92 585.39 C21.62 585.69 21.62 586.23 21.92 586.53 C22.22 586.83 22.76 586.78 23.01 586.53 L29.8 579.79
						 L29.85 579.74 L31.54 578.1 Z" class="st1"/>
			<text x="-19.35" y="603.3" class="st2" v:langID="2057"><v:paragraph v:horizAlign="1"/><v:tabList/>UpdateHashflagState <tspan
						x="6.29" dy="1.2em" class="st3">function</tspan></text>		</g>
		<g id="group38-49" transform="translate(920.612,-420.641)" v:mID="38" v:groupContext="group">
			<title>Storage queue (opaque)</title>
			<desc>save-hashflags queue</desc>
			<g id="shape39-50" v:mID="39" v:groupContext="shape" transform="translate(0,1164.15) scale(1,-1)">
				<title>Sheet.39</title>
				<path d="M18.1 592.53 L5.99 592.53 L0 582.08 L6.06 571.62 L18.1 571.62 L24.1 582.08 L18.1 592.53 Z" class="st11"/>
			</g>
			<g id="group40-52" v:mID="40" v:groupContext="group">
				<title>Sheet.40</title>
				<g id="shape41-53" v:mID="41" v:groupContext="shape" transform="translate(13.515,1173.14) scale(1,-1)">
					<title>Sheet.41</title>
					<path d="M5.23 592.53 L0 592.53 L2.61 590.49 L5.23 592.53 Z" class="st12"/>
				</g>
				<g id="shape42-55" v:mID="42" v:groupContext="shape" transform="translate(5.54625,1173.91) scale(1,-1)">
					<title>Sheet.42</title>
					<path d="M2.61 590.49 C2.55 590.49 2.49 590.49 2.42 590.55 L0 592.47 L0 589.34 L5.55 589.34 L5.55 592.53 L2.87
								 590.55 C2.8 590.49 2.68 590.49 2.61 590.49 Z" class="st12"/>
				</g>
				<g id="shape43-57" v:mID="43" v:groupContext="shape" transform="translate(13.3875,1173.91) scale(1,-1)">
					<title>Sheet.43</title>
					<path d="M2.74 590.49 C2.68 590.49 2.55 590.49 2.49 590.55 L0 592.47 L0 589.34 L5.55 589.34 L5.55 592.53 L2.93
								 590.55 C2.87 590.49 2.8 590.49 2.74 590.49 Z" class="st12"/>
				</g>
				<g id="shape44-59" v:mID="44" v:groupContext="shape" transform="translate(0,1164.15) scale(1,-1)">
					<title>Sheet.44</title>
					<path d="M18.1 592.53 L5.99 592.53 L0 582.08 L6.06 571.62 L18.1 571.62 L24.1 582.08 L18.1 592.53 ZM20.21 577.61
								 L3.7 577.61 C3.19 577.61 2.81 578.06 2.81 578.57 L2.81 584.88 C2.81 585.39 3.19 585.84 3.7 585.84
								 L20.21 585.84 C20.4 585.84 20.72 585.84 22.89 581.76 L22.95 581.57 L22.89 581.44 C20.72 577.61 20.4
								 577.61 20.21 577.61 Z" class="st12"/>
				</g>
				<g id="shape45-61" v:mID="45" v:groupContext="shape" transform="translate(5.4825,1173.14) scale(1,-1)">
					<title>Sheet.45</title>
					<path d="M5.29 592.53 L0 592.53 L2.61 590.49 L5.29 592.53 Z" class="st12"/>
				</g>
				<g id="shape46-63" v:mID="46" v:groupContext="shape" transform="translate(3.4425,1171.55) scale(1,-1)">
					<title>Sheet.46</title>
					<path d="M0.26 592.53 C0.13 592.53 0 592.4 0 592.28 L0 585.96 C0 585.84 0.13 585.65 0.26 585.65 L16.64 585.65
								 C16.96 585.96 17.91 587.49 18.74 588.96 C17.91 590.55 16.89 592.21 16.64 592.53 L0.26 592.53 ZM8.29
								 586.67 C8.29 586.47 8.1 586.28 7.84 586.28 L1.59 586.28 C1.4 586.28 1.34 586.47 1.34 586.67 L1.34
								 591.32 C1.34 591.51 1.4 591.57 1.59 591.57 L7.84 591.57 C8.03 591.57 8.29 591.51 8.29 591.32 L8.29
								 586.67 ZM16.13 586.67 C16.13 586.47 16 586.28 15.81 586.28 L9.63 586.28 C9.44 586.28 9.31 586.47
								 9.31 586.67 L9.31 591.32 C9.31 591.51 9.44 591.57 9.63 591.57 L15.81 591.57 C16 591.57 16.13 591.51
								 16.13 591.32 L16.13 586.67 Z" class="st12"/>
				</g>
			</g>
			<g id="shape38-65" v:mID="38" v:groupContext="groupContent">
				<v:textBlock v:margins="rect(0,0,0,0)" v:tabSpace="42.5197" v:verticalAlign="0"/>
				<v:textRect cx="12.0488" cy="609.589" width="72" height="30.9375"/>
				<text x="-17.1" y="602.22" class="st2" v:langID="2057"><v:paragraph v:horizAlign="1"/><v:tabList/>save-hashflags <tspan
							x="-0.4" dy="1.2em" class="st3">queue</tspan></text>			</g>
		</g>
		<g id="group48-68" transform="translate(918.201,-38.3824)" v:mID="48" v:groupContext="group">
			<title>Storage blob.48</title>
			<desc>hashflags blob store</desc>
			<g id="shape49-69" v:mID="49" v:groupContext="shape">
				<title>Sheet.49</title>
				<path d="M21.69 567.49 L7.23 567.49 L0 580.01 L7.23 592.53 L21.69 592.53 L28.92 580.01 L21.69 567.49 ZM21.73 585.6
							 C21.73 586.68 20.85 587.56 19.77 587.56 L9.15 587.56 C8.07 587.56 7.19 586.68 7.19 585.6 L7.19 574.41
							 C7.19 573.33 8.07 572.46 9.15 572.46 L17.03 572.46 C17.81 572.46 18.49 572.46 18.49 572.46 L18.71 572.46
							 L21.73 575.44 L21.73 577.03 L21.73 585.6 Z" class="st1"/>
			</g>
			<g id="shape50-71" v:mID="50" v:groupContext="shape" transform="translate(12.1013,-8.085)">
				<title>Sheet.50</title>
				<path d="M1.23 590.1 C1.21 589.99 1.18 589.89 1.15 589.81 C1.11 589.73 1.07 589.67 1.02 589.62 C0.98 589.58 0.92
							 589.54 0.86 589.52 C0.8 589.5 0.73 589.49 0.66 589.49 C0.53 589.49 0.42 589.53 0.33 589.59 C0.25 589.65
							 0.18 589.74 0.13 589.87 C0.08 589.99 0.05 590.15 0.03 590.34 C0.01 590.52 0 590.74 0 590.99 C0 591.29
							 0.01 591.54 0.04 591.74 C0.06 591.94 0.1 592.1 0.15 592.21 C0.2 592.33 0.27 592.41 0.35 592.46 C0.43
							 592.51 0.53 592.53 0.64 592.53 C0.73 592.53 0.8 592.52 0.87 592.49 C0.93 592.46 0.99 592.42 1.04 592.37
							 C1.09 592.31 1.13 592.24 1.16 592.16 C1.2 592.08 1.22 591.98 1.24 591.87 C1.26 591.76 1.28 591.64 1.29
							 591.5 C1.29 591.36 1.3 591.21 1.3 591.04 C1.3 590.84 1.29 590.66 1.28 590.51 C1.27 590.35 1.26 590.22
							 1.23 590.1 Z" class="st1"/>
			</g>
			<g id="shape51-73" v:mID="51" v:groupContext="shape" transform="translate(15.5167,-13.9237)">
				<title>Sheet.51</title>
				<path d="M1.23 590.1 C1.21 589.99 1.18 589.89 1.15 589.81 C1.11 589.73 1.07 589.67 1.02 589.62 C0.98 589.58 0.92
							 589.54 0.86 589.52 C0.8 589.5 0.73 589.49 0.65 589.49 C0.53 589.49 0.42 589.53 0.33 589.59 C0.25 589.65
							 0.18 589.74 0.13 589.87 C0.08 589.99 0.05 590.15 0.03 590.34 C0.01 590.52 0 590.74 0 590.99 C0 591.29
							 0.01 591.54 0.04 591.74 C0.06 591.94 0.1 592.1 0.15 592.21 C0.2 592.33 0.27 592.41 0.35 592.46 C0.43
							 592.51 0.53 592.53 0.64 592.53 C0.73 592.53 0.8 592.52 0.87 592.49 C0.93 592.46 0.99 592.42 1.04 592.37
							 C1.09 592.31 1.13 592.24 1.16 592.16 C1.2 592.08 1.22 591.98 1.24 591.87 C1.26 591.76 1.28 591.64 1.29
							 591.5 C1.29 591.36 1.3 591.21 1.3 591.04 C1.3 590.84 1.29 590.66 1.28 590.51 C1.27 590.35 1.25 590.22
							 1.23 590.1 Z" class="st1"/>
			</g>
			<g id="shape52-75" v:mID="52" v:groupContext="shape" transform="translate(8.2605,-6.04125)">
				<title>Sheet.52</title>
				<path d="M9.98 579.58 C9.71 579.57 9.26 579.57 8.76 579.57 L0.88 579.57 C0.39 579.57 0 579.97 0 580.45 L0 591.65
							 C0 592.14 0.39 592.53 0.88 592.53 L11.51 592.53 C11.99 592.53 12.4 592.14 12.4 591.65 L12.4 582.03 L9.98
							 582.03 L9.98 579.58 L9.98 579.58 ZM3.27 581.8 C3.27 581.77 3.28 581.74 3.29 581.72 C3.3 581.69 3.31
							 581.67 3.32 581.66 C3.34 581.64 3.36 581.63 3.39 581.61 L4.3 581.02 C4.31 581.01 4.33 581 4.34 580.99
							 C4.36 580.99 4.38 580.98 4.41 580.98 C4.43 580.98 4.47 580.98 4.51 580.97 C4.55 580.97 4.61 580.97 4.68
							 580.97 C4.76 580.97 4.83 580.97 4.88 580.98 C4.93 580.98 4.97 580.99 5 580.99 C5.02 581 5.04 581.01
							 5.05 581.03 C5.06 581.04 5.06 581.05 5.06 581.08 L5.06 584.59 L5.76 584.59 C5.78 584.59 5.79 584.6 5.81
							 584.61 C5.83 584.62 5.84 584.64 5.85 584.67 C5.87 584.69 5.87 584.73 5.88 584.77 C5.88 584.81 5.89 584.87
							 5.89 584.93 C5.89 584.99 5.88 585.04 5.88 585.09 C5.87 585.13 5.86 585.16 5.85 585.19 C5.84 585.21 5.82
							 585.23 5.81 585.24 C5.79 585.25 5.78 585.26 5.76 585.26 L3.41 585.26 C3.39 585.26 3.37 585.25 3.36 585.24
							 C3.34 585.23 3.33 585.21 3.32 585.19 C3.3 585.16 3.29 585.13 3.29 585.09 C3.28 585.04 3.28 584.99 3.28
							 584.93 C3.28 584.87 3.28 584.81 3.29 584.77 C3.29 584.73 3.3 584.69 3.31 584.67 C3.33 584.64 3.34 584.62
							 3.35 584.61 C3.37 584.6 3.39 584.59 3.41 584.59 L4.2 584.59 L4.2 581.82 L3.52 582.2 C3.47 582.22 3.42
							 582.24 3.39 582.24 C3.36 582.25 3.34 582.24 3.32 582.22 C3.3 582.21 3.29 582.17 3.28 582.13 C3.27 582.08
							 3.27 582.02 3.27 581.93 C3.27 581.88 3.27 581.84 3.27 581.8 ZM5.93 589.87 C5.88 590.15 5.79 590.38 5.66
							 590.58 C5.54 590.77 5.38 590.92 5.18 591.02 C4.98 591.12 4.74 591.17 4.45 591.17 C4.16 591.17 3.92 591.12
							 3.73 591.02 C3.54 590.92 3.38 590.78 3.27 590.59 C3.16 590.41 3.08 590.18 3.04 589.9 C2.99 589.63 2.97
							 589.33 2.97 588.99 C2.97 588.65 3 588.34 3.05 588.07 C3.11 587.79 3.2 587.56 3.32 587.36 C3.45 587.17
							 3.61 587.02 3.81 586.92 C4.01 586.82 4.25 586.77 4.53 586.77 C4.82 586.77 5.07 586.82 5.26 586.92 C5.45
							 587.02 5.6 587.16 5.71 587.35 C5.83 587.53 5.9 587.76 5.95 588.03 C5.99 588.31 6.01 588.61 6.01 588.95
							 C6.01 589.29 5.99 589.6 5.93 589.87 ZM9.29 590.93 C9.29 590.97 9.28 591 9.26 591.03 C9.25 591.05 9.24
							 591.07 9.22 591.08 C9.21 591.09 9.19 591.1 9.17 591.1 L6.82 591.1 C6.8 591.1 6.79 591.09 6.77 591.08
							 C6.76 591.07 6.74 591.05 6.73 591.03 C6.72 591 6.71 590.97 6.7 590.93 C6.7 590.88 6.69 590.83 6.69 590.77
							 C6.69 590.71 6.7 590.65 6.7 590.61 C6.71 590.57 6.72 590.53 6.73 590.51 C6.74 590.48 6.75 590.46 6.77
							 590.45 C6.78 590.44 6.8 590.43 6.82 590.43 L7.61 590.43 L7.61 587.66 L6.93 588.04 C6.88 588.06 6.84
							 588.08 6.81 588.08 C6.78 588.09 6.75 588.08 6.73 588.06 C6.71 588.04 6.7 588.01 6.69 587.97 C6.69 587.92
							 6.68 587.86 6.68 587.77 C6.68 587.72 6.69 587.68 6.69 587.64 C6.69 587.61 6.7 587.58 6.7 587.56 C6.71
							 587.53 6.73 587.51 6.74 587.5 C6.76 587.48 6.78 587.47 6.8 587.45 L7.72 586.85 C7.73 586.85 7.74 586.84
							 7.76 586.83 C7.77 586.83 7.8 586.82 7.82 586.82 C7.85 586.82 7.88 586.81 7.93 586.81 C7.97 586.81 8.02
							 586.81 8.09 586.81 C8.18 586.81 8.24 586.81 8.3 586.82 C8.35 586.82 8.39 586.83 8.41 586.83 C8.44 586.84
							 8.46 586.85 8.46 586.87 C8.47 586.88 8.48 586.89 8.48 586.91 L8.48 590.43 L9.17 590.43 C9.19 590.43
							 9.21 590.44 9.23 590.45 C9.24 590.46 9.26 590.48 9.27 590.51 C9.28 590.53 9.29 590.57 9.3 590.61 C9.3
							 590.65 9.3 590.71 9.3 590.77 C9.3 590.83 9.3 590.88 9.29 590.93 ZM9.35 584.04 C9.29 584.31 9.2 584.54
							 9.08 584.74 C8.95 584.93 8.79 585.08 8.59 585.18 C8.39 585.28 8.15 585.33 7.87 585.33 C7.57 585.33 7.33
							 585.28 7.14 585.18 C6.95 585.08 6.8 584.94 6.69 584.75 C6.58 584.57 6.5 584.34 6.45 584.07 C6.41 583.79
							 6.38 583.49 6.38 583.15 C6.38 582.81 6.41 582.5 6.47 582.23 C6.52 581.95 6.61 581.72 6.74 581.52 C6.86
							 581.33 7.02 581.18 7.22 581.08 C7.42 580.98 7.66 580.93 7.95 580.93 C8.24 580.93 8.48 580.98 8.67 581.08
							 C8.87 581.18 9.02 581.32 9.13 581.51 C9.24 581.69 9.32 581.92 9.36 582.19 C9.41 582.47 9.43 582.77 9.43
							 583.11 C9.43 583.45 9.4 583.76 9.35 584.04 Z" class="st1"/>
			</g>
			<g id="shape48-77" v:mID="48" v:groupContext="groupContent">
				<v:textBlock v:margins="rect(0,0,0,0)" v:tabSpace="42.5197" v:verticalAlign="0"/>
				<v:textRect cx="14.46" cy="597.932" width="82.04" height="10.8036"/>
				<text x="-25.65" y="600.63" class="st2" v:langID="2057"><v:paragraph v:horizAlign="1"/><v:tabList/>hashflags blob store</text>			</g>
		</g>
		<g id="group53-79" transform="translate(703.052,-231.579)" v:mID="53" v:groupContext="group">
			<title>Storage queue (opaque).53</title>
			<desc>create-hero queue</desc>
			<g id="shape54-80" v:mID="54" v:groupContext="shape" transform="translate(0,1164.15) scale(1,-1)">
				<title>Sheet.54</title>
				<path d="M18.1 592.53 L5.99 592.53 L0 582.08 L6.06 571.62 L18.1 571.62 L24.1 582.08 L18.1 592.53 Z" class="st11"/>
			</g>
			<g id="group55-82" v:mID="55" v:groupContext="group">
				<title>Sheet.55</title>
				<g id="shape56-83" v:mID="56" v:groupContext="shape" transform="translate(13.515,1173.14) scale(1,-1)">
					<title>Sheet.56</title>
					<path d="M5.23 592.53 L0 592.53 L2.61 590.49 L5.23 592.53 Z" class="st12"/>
				</g>
				<g id="shape57-85" v:mID="57" v:groupContext="shape" transform="translate(5.54625,1173.91) scale(1,-1)">
					<title>Sheet.57</title>
					<path d="M2.61 590.49 C2.55 590.49 2.49 590.49 2.42 590.55 L0 592.47 L0 589.34 L5.55 589.34 L5.55 592.53 L2.87
								 590.55 C2.8 590.49 2.68 590.49 2.61 590.49 Z" class="st12"/>
				</g>
				<g id="shape58-87" v:mID="58" v:groupContext="shape" transform="translate(13.3875,1173.91) scale(1,-1)">
					<title>Sheet.58</title>
					<path d="M2.74 590.49 C2.68 590.49 2.55 590.49 2.49 590.55 L0 592.47 L0 589.34 L5.55 589.34 L5.55 592.53 L2.93
								 590.55 C2.87 590.49 2.8 590.49 2.74 590.49 Z" class="st12"/>
				</g>
				<g id="shape59-89" v:mID="59" v:groupContext="shape" transform="translate(0,1164.15) scale(1,-1)">
					<title>Sheet.59</title>
					<path d="M18.1 592.53 L5.99 592.53 L0 582.08 L6.06 571.62 L18.1 571.62 L24.1 582.08 L18.1 592.53 ZM20.21 577.61
								 L3.7 577.61 C3.19 577.61 2.81 578.06 2.81 578.57 L2.81 584.88 C2.81 585.39 3.19 585.84 3.7 585.84
								 L20.21 585.84 C20.4 585.84 20.72 585.84 22.89 581.76 L22.95 581.57 L22.89 581.44 C20.72 577.61 20.4
								 577.61 20.21 577.61 Z" class="st12"/>
				</g>
				<g id="shape60-91" v:mID="60" v:groupContext="shape" transform="translate(5.4825,1173.14) scale(1,-1)">
					<title>Sheet.60</title>
					<path d="M5.29 592.53 L0 592.53 L2.61 590.49 L5.29 592.53 Z" class="st12"/>
				</g>
				<g id="shape61-93" v:mID="61" v:groupContext="shape" transform="translate(3.4425,1171.55) scale(1,-1)">
					<title>Sheet.61</title>
					<path d="M0.26 592.53 C0.13 592.53 0 592.4 0 592.28 L0 585.96 C0 585.84 0.13 585.65 0.26 585.65 L16.64 585.65
								 C16.96 585.96 17.91 587.49 18.74 588.96 C17.91 590.55 16.89 592.21 16.64 592.53 L0.26 592.53 ZM8.29
								 586.67 C8.29 586.47 8.1 586.28 7.84 586.28 L1.59 586.28 C1.4 586.28 1.34 586.47 1.34 586.67 L1.34
								 591.32 C1.34 591.51 1.4 591.57 1.59 591.57 L7.84 591.57 C8.03 591.57 8.29 591.51 8.29 591.32 L8.29
								 586.67 ZM16.13 586.67 C16.13 586.47 16 586.28 15.81 586.28 L9.63 586.28 C9.44 586.28 9.31 586.47
								 9.31 586.67 L9.31 591.32 C9.31 591.51 9.44 591.57 9.63 591.57 L15.81 591.57 C16 591.57 16.13 591.51
								 16.13 591.32 L16.13 586.67 Z" class="st12"/>
				</g>
			</g>
			<g id="shape53-95" v:mID="53" v:groupContext="groupContent">
				<v:textBlock v:margins="rect(0,0,0,0)" v:tabSpace="42.5197" v:verticalAlign="0"/>
				<v:textRect cx="12.0488" cy="609.589" width="72" height="30.9375"/>
				<text x="-11.02" y="602.22" class="st2" v:langID="2057"><v:paragraph v:horizAlign="1"/><v:tabList/>create-hero <tspan
							x="-0.4" dy="1.2em" class="st3">queue</tspan></text>			</g>
		</g>
		<g id="shape62-98" v:mID="62" v:groupContext="shape" transform="translate(481.669,-227.409)">
			<title>Azure Functions (nc).62</title>
			<desc>CreateHeroImage function</desc>
			<v:userDefs>
				<v:ud v:nameU="visAltText" v:val="VT4()"/>
			</v:userDefs>
			<v:textBlock v:margins="rect(0,0,0,0)" v:tabSpace="42.5197"/>
			<v:textRect cx="13.95" cy="606.406" width="75.26" height="29.25"/>
			<path d="M23.6 563.28 L13.94 563.28 L8.73 577.96 L15.08 578 L10.12 592.53 L23.8 573.15 L17.16 573.15 L23.6 563.28 ZM0.2
						 578.1 L1.74 579.84 L1.79 579.89 L8.73 586.53 C8.98 586.78 9.53 586.83 9.82 586.53 C10.12 586.23 10.12 585.69
						 9.82 585.39 L2.63 578.1 C2.34 577.81 2.34 577.26 2.63 576.96 L9.67 569.92 C10.07 569.63 9.97 569.08 9.67
						 568.78 C9.33 568.49 8.88 568.49 8.58 568.78 L1.74 575.43 L0.2 576.96 C-0.04 577.26 -0.09 577.81 0.2 578.1
						 ZM31.54 578.1 C31.83 577.81 31.79 577.26 31.54 576.96 L30 575.43 L23.16 568.78 C22.86 568.49 22.42 568.49
						 22.07 568.78 C21.77 569.08 21.67 569.63 22.07 569.92 L29.26 576.96 C29.55 577.26 29.55 577.81 29.26 578.1
						 L21.92 585.39 C21.62 585.69 21.62 586.23 21.92 586.53 C22.22 586.83 22.76 586.78 23.01 586.53 L29.8 579.79
						 L29.85 579.74 L31.54 578.1 Z" class="st1"/>
			<rect v:rectContext="textBkgnd" x="-21.0371" y="595.605" width="69.9741" height="21.5997" class="st13"/>
			<text x="-21.04" y="603.71" class="st2" v:langID="2057"><v:paragraph v:horizAlign="1"/><v:tabList/>CreateHeroImage <tspan
						x="-2.43" dy="1.2em" class="st3">function</tspan></text>		</g>
		<g id="group63-103" transform="translate(483.08,-40.4494)" v:mID="63" v:groupContext="group">
			<title>Storage blob.63</title>
			<desc>heroimages blob store</desc>
			<g id="shape64-104" v:mID="64" v:groupContext="shape">
				<title>Sheet.64</title>
				<path d="M21.69 567.49 L7.23 567.49 L0 580.01 L7.23 592.53 L21.69 592.53 L28.92 580.01 L21.69 567.49 ZM21.73 585.6
							 C21.73 586.68 20.85 587.56 19.77 587.56 L9.15 587.56 C8.07 587.56 7.19 586.68 7.19 585.6 L7.19 574.41
							 C7.19 573.33 8.07 572.46 9.15 572.46 L17.03 572.46 C17.81 572.46 18.49 572.46 18.49 572.46 L18.71 572.46
							 L21.73 575.44 L21.73 577.03 L21.73 585.6 Z" class="st1"/>
			</g>
			<g id="shape65-106" v:mID="65" v:groupContext="shape" transform="translate(12.1013,-8.085)">
				<title>Sheet.65</title>
				<path d="M1.23 590.1 C1.21 589.99 1.18 589.89 1.15 589.81 C1.11 589.73 1.07 589.67 1.02 589.62 C0.98 589.58 0.92
							 589.54 0.86 589.52 C0.8 589.5 0.73 589.49 0.66 589.49 C0.53 589.49 0.42 589.53 0.33 589.59 C0.25 589.65
							 0.18 589.74 0.13 589.87 C0.08 589.99 0.05 590.15 0.03 590.34 C0.01 590.52 0 590.74 0 590.99 C0 591.29
							 0.01 591.54 0.04 591.74 C0.06 591.94 0.1 592.1 0.15 592.21 C0.2 592.33 0.27 592.41 0.35 592.46 C0.43
							 592.51 0.53 592.53 0.64 592.53 C0.73 592.53 0.8 592.52 0.87 592.49 C0.93 592.46 0.99 592.42 1.04 592.37
							 C1.09 592.31 1.13 592.24 1.16 592.16 C1.2 592.08 1.22 591.98 1.24 591.87 C1.26 591.76 1.28 591.64 1.29
							 591.5 C1.29 591.36 1.3 591.21 1.3 591.04 C1.3 590.84 1.29 590.66 1.28 590.51 C1.27 590.35 1.26 590.22
							 1.23 590.1 Z" class="st1"/>
			</g>
			<g id="shape66-108" v:mID="66" v:groupContext="shape" transform="translate(15.5167,-13.9237)">
				<title>Sheet.66</title>
				<path d="M1.23 590.1 C1.21 589.99 1.18 589.89 1.15 589.81 C1.11 589.73 1.07 589.67 1.02 589.62 C0.98 589.58 0.92
							 589.54 0.86 589.52 C0.8 589.5 0.73 589.49 0.65 589.49 C0.53 589.49 0.42 589.53 0.33 589.59 C0.25 589.65
							 0.18 589.74 0.13 589.87 C0.08 589.99 0.05 590.15 0.03 590.34 C0.01 590.52 0 590.74 0 590.99 C0 591.29
							 0.01 591.54 0.04 591.74 C0.06 591.94 0.1 592.1 0.15 592.21 C0.2 592.33 0.27 592.41 0.35 592.46 C0.43
							 592.51 0.53 592.53 0.64 592.53 C0.73 592.53 0.8 592.52 0.87 592.49 C0.93 592.46 0.99 592.42 1.04 592.37
							 C1.09 592.31 1.13 592.24 1.16 592.16 C1.2 592.08 1.22 591.98 1.24 591.87 C1.26 591.76 1.28 591.64 1.29
							 591.5 C1.29 591.36 1.3 591.21 1.3 591.04 C1.3 590.84 1.29 590.66 1.28 590.51 C1.27 590.35 1.25 590.22
							 1.23 590.1 Z" class="st1"/>
			</g>
			<g id="shape67-110" v:mID="67" v:groupContext="shape" transform="translate(8.2605,-6.04125)">
				<title>Sheet.67</title>
				<path d="M9.98 579.58 C9.71 579.57 9.26 579.57 8.76 579.57 L0.88 579.57 C0.39 579.57 0 579.97 0 580.45 L0 591.65
							 C0 592.14 0.39 592.53 0.88 592.53 L11.51 592.53 C11.99 592.53 12.4 592.14 12.4 591.65 L12.4 582.03 L9.98
							 582.03 L9.98 579.58 L9.98 579.58 ZM3.27 581.8 C3.27 581.77 3.28 581.74 3.29 581.72 C3.3 581.69 3.31
							 581.67 3.32 581.66 C3.34 581.64 3.36 581.63 3.39 581.61 L4.3 581.02 C4.31 581.01 4.33 581 4.34 580.99
							 C4.36 580.99 4.38 580.98 4.41 580.98 C4.43 580.98 4.47 580.98 4.51 580.97 C4.55 580.97 4.61 580.97 4.68
							 580.97 C4.76 580.97 4.83 580.97 4.88 580.98 C4.93 580.98 4.97 580.99 5 580.99 C5.02 581 5.04 581.01
							 5.05 581.03 C5.06 581.04 5.06 581.05 5.06 581.08 L5.06 584.59 L5.76 584.59 C5.78 584.59 5.79 584.6 5.81
							 584.61 C5.83 584.62 5.84 584.64 5.85 584.67 C5.87 584.69 5.87 584.73 5.88 584.77 C5.88 584.81 5.89 584.87
							 5.89 584.93 C5.89 584.99 5.88 585.04 5.88 585.09 C5.87 585.13 5.86 585.16 5.85 585.19 C5.84 585.21 5.82
							 585.23 5.81 585.24 C5.79 585.25 5.78 585.26 5.76 585.26 L3.41 585.26 C3.39 585.26 3.37 585.25 3.36 585.24
							 C3.34 585.23 3.33 585.21 3.32 585.19 C3.3 585.16 3.29 585.13 3.29 585.09 C3.28 585.04 3.28 584.99 3.28
							 584.93 C3.28 584.87 3.28 584.81 3.29 584.77 C3.29 584.73 3.3 584.69 3.31 584.67 C3.33 584.64 3.34 584.62
							 3.35 584.61 C3.37 584.6 3.39 584.59 3.41 584.59 L4.2 584.59 L4.2 581.82 L3.52 582.2 C3.47 582.22 3.42
							 582.24 3.39 582.24 C3.36 582.25 3.34 582.24 3.32 582.22 C3.3 582.21 3.29 582.17 3.28 582.13 C3.27 582.08
							 3.27 582.02 3.27 581.93 C3.27 581.88 3.27 581.84 3.27 581.8 ZM5.93 589.87 C5.88 590.15 5.79 590.38 5.66
							 590.58 C5.54 590.77 5.38 590.92 5.18 591.02 C4.98 591.12 4.74 591.17 4.45 591.17 C4.16 591.17 3.92 591.12
							 3.73 591.02 C3.54 590.92 3.38 590.78 3.27 590.59 C3.16 590.41 3.08 590.18 3.04 589.9 C2.99 589.63 2.97
							 589.33 2.97 588.99 C2.97 588.65 3 588.34 3.05 588.07 C3.11 587.79 3.2 587.56 3.32 587.36 C3.45 587.17
							 3.61 587.02 3.81 586.92 C4.01 586.82 4.25 586.77 4.53 586.77 C4.82 586.77 5.07 586.82 5.26 586.92 C5.45
							 587.02 5.6 587.16 5.71 587.35 C5.83 587.53 5.9 587.76 5.95 588.03 C5.99 588.31 6.01 588.61 6.01 588.95
							 C6.01 589.29 5.99 589.6 5.93 589.87 ZM9.29 590.93 C9.29 590.97 9.28 591 9.26 591.03 C9.25 591.05 9.24
							 591.07 9.22 591.08 C9.21 591.09 9.19 591.1 9.17 591.1 L6.82 591.1 C6.8 591.1 6.79 591.09 6.77 591.08
							 C6.76 591.07 6.74 591.05 6.73 591.03 C6.72 591 6.71 590.97 6.7 590.93 C6.7 590.88 6.69 590.83 6.69 590.77
							 C6.69 590.71 6.7 590.65 6.7 590.61 C6.71 590.57 6.72 590.53 6.73 590.51 C6.74 590.48 6.75 590.46 6.77
							 590.45 C6.78 590.44 6.8 590.43 6.82 590.43 L7.61 590.43 L7.61 587.66 L6.93 588.04 C6.88 588.06 6.84
							 588.08 6.81 588.08 C6.78 588.09 6.75 588.08 6.73 588.06 C6.71 588.04 6.7 588.01 6.69 587.97 C6.69 587.92
							 6.68 587.86 6.68 587.77 C6.68 587.72 6.69 587.68 6.69 587.64 C6.69 587.61 6.7 587.58 6.7 587.56 C6.71
							 587.53 6.73 587.51 6.74 587.5 C6.76 587.48 6.78 587.47 6.8 587.45 L7.72 586.85 C7.73 586.85 7.74 586.84
							 7.76 586.83 C7.77 586.83 7.8 586.82 7.82 586.82 C7.85 586.82 7.88 586.81 7.93 586.81 C7.97 586.81 8.02
							 586.81 8.09 586.81 C8.18 586.81 8.24 586.81 8.3 586.82 C8.35 586.82 8.39 586.83 8.41 586.83 C8.44 586.84
							 8.46 586.85 8.46 586.87 C8.47 586.88 8.48 586.89 8.48 586.91 L8.48 590.43 L9.17 590.43 C9.19 590.43
							 9.21 590.44 9.23 590.45 C9.24 590.46 9.26 590.48 9.27 590.51 C9.28 590.53 9.29 590.57 9.3 590.61 C9.3
							 590.65 9.3 590.71 9.3 590.77 C9.3 590.83 9.3 590.88 9.29 590.93 ZM9.35 584.04 C9.29 584.31 9.2 584.54
							 9.08 584.74 C8.95 584.93 8.79 585.08 8.59 585.18 C8.39 585.28 8.15 585.33 7.87 585.33 C7.57 585.33 7.33
							 585.28 7.14 585.18 C6.95 585.08 6.8 584.94 6.69 584.75 C6.58 584.57 6.5 584.34 6.45 584.07 C6.41 583.79
							 6.38 583.49 6.38 583.15 C6.38 582.81 6.41 582.5 6.47 582.23 C6.52 581.95 6.61 581.72 6.74 581.52 C6.86
							 581.33 7.02 581.18 7.22 581.08 C7.42 580.98 7.66 580.93 7.95 580.93 C8.24 580.93 8.48 580.98 8.67 581.08
							 C8.87 581.18 9.02 581.32 9.13 581.51 C9.24 581.69 9.32 581.92 9.36 582.19 C9.41 582.47 9.43 582.77 9.43
							 583.11 C9.43 583.45 9.4 583.76 9.35 584.04 Z" class="st1"/>
			</g>
			<g id="shape63-112" v:mID="63" v:groupContext="groupContent">
				<v:textBlock v:margins="rect(0,0,0,0)" v:tabSpace="42.5197" v:verticalAlign="0"/>
				<v:textRect cx="14.46" cy="597.932" width="91.3" height="10.8036"/>
				<text x="-30.28" y="600.63" class="st2" v:langID="2057"><v:paragraph v:horizAlign="1"/><v:tabList/>heroimages blob store</text>			</g>
		</g>
		<g id="group68-114" transform="translate(267.93,-231.579)" v:mID="68" v:groupContext="group">
			<title>Storage queue (opaque).68</title>
			<desc>tweet queue</desc>
			<g id="shape69-115" v:mID="69" v:groupContext="shape" transform="translate(0,1164.15) scale(1,-1)">
				<title>Sheet.69</title>
				<path d="M18.1 592.53 L5.99 592.53 L0 582.08 L6.06 571.62 L18.1 571.62 L24.1 582.08 L18.1 592.53 Z" class="st11"/>
			</g>
			<g id="group70-117" v:mID="70" v:groupContext="group">
				<title>Sheet.70</title>
				<g id="shape71-118" v:mID="71" v:groupContext="shape" transform="translate(13.515,1173.14) scale(1,-1)">
					<title>Sheet.71</title>
					<path d="M5.23 592.53 L0 592.53 L2.61 590.49 L5.23 592.53 Z" class="st12"/>
				</g>
				<g id="shape72-120" v:mID="72" v:groupContext="shape" transform="translate(5.54625,1173.91) scale(1,-1)">
					<title>Sheet.72</title>
					<path d="M2.61 590.49 C2.55 590.49 2.49 590.49 2.42 590.55 L0 592.47 L0 589.34 L5.55 589.34 L5.55 592.53 L2.87
								 590.55 C2.8 590.49 2.68 590.49 2.61 590.49 Z" class="st12"/>
				</g>
				<g id="shape73-122" v:mID="73" v:groupContext="shape" transform="translate(13.3875,1173.91) scale(1,-1)">
					<title>Sheet.73</title>
					<path d="M2.74 590.49 C2.68 590.49 2.55 590.49 2.49 590.55 L0 592.47 L0 589.34 L5.55 589.34 L5.55 592.53 L2.93
								 590.55 C2.87 590.49 2.8 590.49 2.74 590.49 Z" class="st12"/>
				</g>
				<g id="shape74-124" v:mID="74" v:groupContext="shape" transform="translate(0,1164.15) scale(1,-1)">
					<title>Sheet.74</title>
					<path d="M18.1 592.53 L5.99 592.53 L0 582.08 L6.06 571.62 L18.1 571.62 L24.1 582.08 L18.1 592.53 ZM20.21 577.61
								 L3.7 577.61 C3.19 577.61 2.81 578.06 2.81 578.57 L2.81 584.88 C2.81 585.39 3.19 585.84 3.7 585.84
								 L20.21 585.84 C20.4 585.84 20.72 585.84 22.89 581.76 L22.95 581.57 L22.89 581.44 C20.72 577.61 20.4
								 577.61 20.21 577.61 Z" class="st12"/>
				</g>
				<g id="shape75-126" v:mID="75" v:groupContext="shape" transform="translate(5.4825,1173.14) scale(1,-1)">
					<title>Sheet.75</title>
					<path d="M5.29 592.53 L0 592.53 L2.61 590.49 L5.29 592.53 Z" class="st12"/>
				</g>
				<g id="shape76-128" v:mID="76" v:groupContext="shape" transform="translate(3.4425,1171.55) scale(1,-1)">
					<title>Sheet.76</title>
					<path d="M0.26 592.53 C0.13 592.53 0 592.4 0 592.28 L0 585.96 C0 585.84 0.13 585.65 0.26 585.65 L16.64 585.65
								 C16.96 585.96 17.91 587.49 18.74 588.96 C17.91 590.55 16.89 592.21 16.64 592.53 L0.26 592.53 ZM8.29
								 586.67 C8.29 586.47 8.1 586.28 7.84 586.28 L1.59 586.28 C1.4 586.28 1.34 586.47 1.34 586.67 L1.34
								 591.32 C1.34 591.51 1.4 591.57 1.59 591.57 L7.84 591.57 C8.03 591.57 8.29 591.51 8.29 591.32 L8.29
								 586.67 ZM16.13 586.67 C16.13 586.47 16 586.28 15.81 586.28 L9.63 586.28 C9.44 586.28 9.31 586.47
								 9.31 586.67 L9.31 591.32 C9.31 591.51 9.44 591.57 9.63 591.57 L15.81 591.57 C16 591.57 16.13 591.51
								 16.13 591.32 L16.13 586.67 Z" class="st12"/>
				</g>
			</g>
			<g id="shape68-130" v:mID="68" v:groupContext="groupContent">
				<v:textBlock v:margins="rect(0,0,0,0)" v:tabSpace="42.5197" v:verticalAlign="0"/>
				<v:textRect cx="12.0488" cy="609.589" width="72" height="30.9375"/>
				<text x="-12.64" y="602.22" class="st2" v:langID="2057"><v:paragraph v:horizAlign="1"/><v:tabList/>tweet queue</text>			</g>
		</g>
		<g id="shape86-132" v:mID="86" v:groupContext="shape" transform="translate(37.562,-227.409)">
			<title>Azure Functions (nc).86</title>
			<desc>TweetHashflag function</desc>
			<v:textBlock v:margins="rect(0,0,0,0)" v:tabSpace="42.5197"/>
			<v:textRect cx="13.1766" cy="605.998" width="65.48" height="29.25"/>
			<path d="M23.6 563.28 L13.94 563.28 L8.73 577.96 L15.08 578 L10.12 592.53 L23.8 573.15 L17.16 573.15 L23.6 563.28 ZM0.2
						 578.1 L1.74 579.84 L1.79 579.89 L8.73 586.53 C8.98 586.78 9.53 586.83 9.82 586.53 C10.12 586.23 10.12 585.69
						 9.82 585.39 L2.63 578.1 C2.34 577.81 2.34 577.26 2.63 576.96 L9.67 569.92 C10.07 569.63 9.97 569.08 9.67
						 568.78 C9.33 568.49 8.88 568.49 8.58 568.78 L1.74 575.43 L0.2 576.96 C-0.04 577.26 -0.09 577.81 0.2 578.1
						 ZM31.54 578.1 C31.83 577.81 31.79 577.26 31.54 576.96 L30 575.43 L23.16 568.78 C22.86 568.49 22.42 568.49
						 22.07 568.78 C21.77 569.08 21.67 569.63 22.07 569.92 L29.26 576.96 C29.55 577.26 29.55 577.81 29.26 578.1
						 L21.92 585.39 C21.62 585.69 21.62 586.23 21.92 586.53 C22.22 586.83 22.76 586.78 23.01 586.53 L29.8 579.79
						 L29.85 579.74 L31.54 578.1 Z" class="st1"/>
			<rect v:rectContext="textBkgnd" x="-16.0426" y="595.198" width="58.4385" height="21.5997" class="st13"/>
			<text x="-16.04" y="603.3" class="st2" v:langID="2057"><v:paragraph v:horizAlign="1"/><v:tabList/>TweetHashflag <tspan
						x="-3.2" dy="1.2em" class="st3">function</tspan></text>		</g>
		<g id="group87-137" transform="translate(41.0446,-37.0931)" v:mID="87" v:groupContext="group">
			<title>Scheduler.87</title>
			<desc>1 minute timer</desc>
			<g id="shape88-138" v:mID="88" v:groupContext="shape">
				<title>Sheet.88</title>
				<path d="M13.45 583.29 L13.45 584.43 L13.45 586.23 C13.27 586.21 12.36 586.08 12.2 586.04 C11.59 585.91 10.99 585.72
							 10.4 585.48 C10.21 585.41 10.02 585.33 9.83 585.24 L9.56 585.11 L9.27 584.97 L9.01 584.83 L8.74 584.68
							 C8.56 584.57 8.39 584.47 8.21 584.35 C7.51 583.9 6.87 583.36 6.26 582.77 C5.66 582.17 5.13 581.49 4.67
							 580.77 C4.19 580.05 3.8 579.26 3.5 578.45 C2.89 576.82 2.62 575.05 2.74 573.31 C2.86 571.58 3.37 569.89
							 4.18 568.4 C4.98 566.92 6.07 565.64 7.3 564.66 C7.92 564.17 8.56 563.75 9.22 563.4 C9.88 563.05 10.55
							 562.77 11.2 562.54 C12.53 562.1 13.82 561.9 14.97 561.87 C16.12 561.83 17.13 561.95 17.95 562.11 C18.77
							 562.26 19.4 562.47 19.83 562.62 C20.05 562.69 20.21 562.75 20.32 562.8 L20.48 562.86 L20.49 562.86 C20.56
							 562.89 20.64 562.86 20.68 562.79 C20.72 562.72 20.7 562.62 20.62 562.58 L20.46 562.49 C20.36 562.43
							 20.2 562.35 19.99 562.24 C19.57 562.03 18.95 561.74 18.11 561.47 C17.28 561.19 16.22 560.95 14.99 560.86
							 C13.75 560.77 12.32 560.85 10.82 561.22 C9.32 561.59 7.74 562.25 6.26 563.26 C4.78 564.27 3.4 565.64
							 2.33 567.31 C1.26 568.97 0.49 570.94 0.19 573.03 C0.04 574.08 -0 575.15 0.09 576.22 C0.18 577.3 0.38
							 578.36 0.71 579.4 C1.04 580.43 1.48 581.43 2.03 582.37 C2.59 583.3 3.25 584.17 3.99 584.96 C4.73 585.74
							 5.56 586.43 6.44 587.02 C6.66 587.17 6.88 587.31 7.11 587.44 L7.45 587.64 L7.81 587.83 L8.14 588 L8.5
							 588.17 C8.73 588.27 8.97 588.37 9.21 588.46 C10.19 588.85 11.2 589.12 12.2 589.28 C12.54 589.34 13.11
							 589.39 13.45 589.41 L13.45 592.53 L17.87 587.91 L13.45 583.29 Z" class="st9"/>
				<path d="M13.45 583.29 L13.45 584.43 L13.45 586.23 C13.27 586.21 12.36 586.08 12.2 586.04 C11.59 585.91 10.99 585.72
							 10.4 585.48 C10.21 585.41 10.02 585.33 9.83 585.24 L9.56 585.11 L9.27 584.97 L9.01 584.83 L8.74 584.68
							 C8.56 584.57 8.39 584.47 8.21 584.35 C7.51 583.9 6.87 583.36 6.26 582.77 C5.66 582.17 5.13 581.49 4.67
							 580.77 C4.19 580.05 3.8 579.26 3.5 578.45 C2.89 576.82 2.62 575.05 2.74 573.31 C2.86 571.58 3.37 569.89
							 4.18 568.4 C4.98 566.92 6.07 565.64 7.3 564.66 C7.92 564.17 8.56 563.75 9.22 563.4 C9.88 563.05 10.55
							 562.77 11.2 562.54 C12.53 562.1 13.82 561.9 14.97 561.87 C16.12 561.83 17.13 561.95 17.95 562.11 C18.77
							 562.26 19.4 562.47 19.83 562.62 C20.05 562.69 20.21 562.75 20.32 562.8 L20.48 562.86 L20.49 562.86 C20.56
							 562.89 20.64 562.86 20.68 562.79 C20.72 562.72 20.7 562.62 20.62 562.58 L20.46 562.49 C20.36 562.43
							 20.2 562.35 19.99 562.24 C19.57 562.03 18.95 561.74 18.11 561.47 C17.28 561.19 16.22 560.95 14.99 560.86
							 C13.75 560.77 12.32 560.85 10.82 561.22 C9.32 561.59 7.74 562.25 6.26 563.26 C4.78 564.27 3.4 565.64
							 2.33 567.31 C1.26 568.97 0.49 570.94 0.19 573.03 C0.04 574.08 -0 575.15 0.09 576.22 C0.18 577.3 0.38
							 578.36 0.71 579.4 C1.04 580.43 1.48 581.43 2.03 582.37 C2.59 583.3 3.25 584.17 3.99 584.96 C4.73 585.74
							 5.56 586.43 6.44 587.02 C6.66 587.17 6.88 587.31 7.11 587.44 L7.45 587.64 L7.81 587.83 L8.14 588 L8.5
							 588.17 C8.73 588.27 8.97 588.37 9.21 588.46 C10.19 588.85 11.2 589.12 12.2 589.28 C12.54 589.34 13.11
							 589.39 13.45 589.41 L13.45 592.53 L17.87 587.91" class="st10"/>
			</g>
			<g id="shape89-141" v:mID="89" v:groupContext="shape" transform="translate(5.18475,-8.7405)">
				<title>Sheet.89</title>
				<path d="M9.65 572.73 C4.17 572.73 0 577.17 0 582.64 C-0 587.18 3 591.02 7.22 592.19 L7.22 591.35 C7.22 590.97 7.48
							 590.62 7.84 590.47 C7.96 590.43 7.72 590.47 7.84 590.47 C8.09 590.47 8.4 590.5 8.58 590.68 L10.44 592.53
							 C15.55 592.13 19.59 587.85 19.59 582.64 C19.59 577.18 15.13 572.73 9.65 572.73 ZM2.26 583.48 C1.78 583.48
							 1.39 583.09 1.39 582.61 C1.39 582.13 1.78 581.74 2.26 581.74 C2.74 581.74 3.14 582.13 3.14 582.61 C3.14
							 583.09 2.74 583.48 2.26 583.48 ZM9.65 573.88 C10.14 573.88 10.53 574.27 10.53 574.76 C10.53 575.24 10.14
							 575.63 9.65 575.63 C9.17 575.63 8.78 575.24 8.78 574.76 C8.78 574.27 9.17 573.88 9.65 573.88 ZM14.84
							 587.67 L14.74 587.76 C14.11 588.39 13.1 588.39 12.47 587.76 L8.4 583.7 C8.04 583.35 8.23 582.87 8.27
							 582.41 L8.27 582.32 L8.27 578.66 C8.27 577.78 8.99 577.06 9.88 577.06 L10.15 577.06 C11.03 577.06 11.75
							 577.78 11.75 578.66 L11.75 581.85 L15.31 585.4 C15.94 586.03 15.46 587.04 14.84 587.67 ZM17.53 583.48
							 C17.05 583.48 16.66 583.09 16.66 582.61 C16.66 582.13 17.05 581.74 17.53 581.74 C18.01 581.74 18.4 582.13
							 18.4 582.61 C18.4 583.09 18.01 583.48 17.53 583.48 Z" class="st1"/>
			</g>
			<g id="shape87-143" v:mID="87" v:groupContext="groupContent">
				<v:textBlock v:margins="rect(0,0,0,0)" v:tabSpace="42.5197" v:verticalAlign="0"/>
				<v:textRect cx="12.3885" cy="597.932" width="60.29" height="10.8036"/>
				<text x="-16.85" y="600.63" class="st2" v:langID="2057"><v:paragraph v:horizAlign="1"/><v:tabList/>1 minute timer</text>			</g>
		</g>
		<g id="shape90-145" v:mID="90" v:groupContext="shape" v:layerMember="0" transform="translate(510.878,-424.01)">
			<title>Dynamic connector.90</title>
			<desc>Read JSON</desc>
			<v:textBlock v:margins="rect(4,4,4,4)" v:tabSpace="42.5197"/>
			<v:textRect cx="94.2102" cy="585.444" width="44.67" height="17.6036"/>
			<path d="M0 585.44 L188.42 585.44" class="st4"/>
			<rect v:rectContext="textBkgnd" x="76.7827" y="580.644" width="34.8552" height="9.59985" class="st6"/>
			<text x="76.78" y="587.84" class="st7" v:langID="2057"><v:paragraph v:horizAlign="1"/><v:tabList/>Read JSON</text>		</g>
		<g id="group91-152" transform="translate(702.712,-541.777)" v:mID="91" v:groupContext="group">
			<title>Scheduler.91</title>
			<desc>1 hour timer</desc>
			<g id="shape92-153" v:mID="92" v:groupContext="shape">
				<title>Sheet.92</title>
				<path d="M13.45 583.29 L13.45 584.43 L13.45 586.23 C13.27 586.21 12.36 586.08 12.2 586.04 C11.59 585.91 10.99 585.72
							 10.4 585.48 C10.21 585.41 10.02 585.33 9.83 585.24 L9.56 585.11 L9.27 584.97 L9.01 584.83 L8.74 584.68
							 C8.56 584.57 8.39 584.47 8.21 584.35 C7.51 583.9 6.87 583.36 6.26 582.77 C5.66 582.17 5.13 581.49 4.67
							 580.77 C4.19 580.05 3.8 579.26 3.5 578.45 C2.89 576.82 2.62 575.05 2.74 573.31 C2.86 571.58 3.37 569.89
							 4.18 568.4 C4.98 566.92 6.07 565.64 7.3 564.66 C7.92 564.17 8.56 563.75 9.22 563.4 C9.88 563.05 10.55
							 562.77 11.2 562.54 C12.53 562.1 13.82 561.9 14.97 561.87 C16.12 561.83 17.13 561.95 17.95 562.11 C18.77
							 562.26 19.4 562.47 19.83 562.62 C20.05 562.69 20.21 562.75 20.32 562.8 L20.48 562.86 L20.49 562.86 C20.56
							 562.89 20.64 562.86 20.68 562.79 C20.72 562.72 20.7 562.62 20.62 562.58 L20.46 562.49 C20.36 562.43
							 20.2 562.35 19.99 562.24 C19.57 562.03 18.95 561.74 18.11 561.47 C17.28 561.19 16.22 560.95 14.99 560.86
							 C13.75 560.77 12.32 560.85 10.82 561.22 C9.32 561.59 7.74 562.25 6.26 563.26 C4.78 564.27 3.4 565.64
							 2.33 567.31 C1.26 568.97 0.49 570.94 0.19 573.03 C0.04 574.08 -0 575.15 0.09 576.22 C0.18 577.3 0.38
							 578.36 0.71 579.4 C1.04 580.43 1.48 581.43 2.03 582.37 C2.59 583.3 3.25 584.17 3.99 584.96 C4.73 585.74
							 5.56 586.43 6.44 587.02 C6.66 587.17 6.88 587.31 7.11 587.44 L7.45 587.64 L7.81 587.83 L8.14 588 L8.5
							 588.17 C8.73 588.27 8.97 588.37 9.21 588.46 C10.19 588.85 11.2 589.12 12.2 589.28 C12.54 589.34 13.11
							 589.39 13.45 589.41 L13.45 592.53 L17.87 587.91 L13.45 583.29 Z" class="st9"/>
				<path d="M13.45 583.29 L13.45 584.43 L13.45 586.23 C13.27 586.21 12.36 586.08 12.2 586.04 C11.59 585.91 10.99 585.72
							 10.4 585.48 C10.21 585.41 10.02 585.33 9.83 585.24 L9.56 585.11 L9.27 584.97 L9.01 584.83 L8.74 584.68
							 C8.56 584.57 8.39 584.47 8.21 584.35 C7.51 583.9 6.87 583.36 6.26 582.77 C5.66 582.17 5.13 581.49 4.67
							 580.77 C4.19 580.05 3.8 579.26 3.5 578.45 C2.89 576.82 2.62 575.05 2.74 573.31 C2.86 571.58 3.37 569.89
							 4.18 568.4 C4.98 566.92 6.07 565.64 7.3 564.66 C7.92 564.17 8.56 563.75 9.22 563.4 C9.88 563.05 10.55
							 562.77 11.2 562.54 C12.53 562.1 13.82 561.9 14.97 561.87 C16.12 561.83 17.13 561.95 17.95 562.11 C18.77
							 562.26 19.4 562.47 19.83 562.62 C20.05 562.69 20.21 562.75 20.32 562.8 L20.48 562.86 L20.49 562.86 C20.56
							 562.89 20.64 562.86 20.68 562.79 C20.72 562.72 20.7 562.62 20.62 562.58 L20.46 562.49 C20.36 562.43
							 20.2 562.35 19.99 562.24 C19.57 562.03 18.95 561.74 18.11 561.47 C17.28 561.19 16.22 560.95 14.99 560.86
							 C13.75 560.77 12.32 560.85 10.82 561.22 C9.32 561.59 7.74 562.25 6.26 563.26 C4.78 564.27 3.4 565.64
							 2.33 567.31 C1.26 568.97 0.49 570.94 0.19 573.03 C0.04 574.08 -0 575.15 0.09 576.22 C0.18 577.3 0.38
							 578.36 0.71 579.4 C1.04 580.43 1.48 581.43 2.03 582.37 C2.59 583.3 3.25 584.17 3.99 584.96 C4.73 585.74
							 5.56 586.43 6.44 587.02 C6.66 587.17 6.88 587.31 7.11 587.44 L7.45 587.64 L7.81 587.83 L8.14 588 L8.5
							 588.17 C8.73 588.27 8.97 588.37 9.21 588.46 C10.19 588.85 11.2 589.12 12.2 589.28 C12.54 589.34 13.11
							 589.39 13.45 589.41 L13.45 592.53 L17.87 587.91" class="st10"/>
			</g>
			<g id="shape93-156" v:mID="93" v:groupContext="shape" transform="translate(5.18475,-8.7405)">
				<title>Sheet.93</title>
				<path d="M9.65 572.73 C4.17 572.73 0 577.17 0 582.64 C-0 587.18 3 591.02 7.22 592.19 L7.22 591.35 C7.22 590.97 7.48
							 590.62 7.84 590.47 C7.96 590.43 7.72 590.47 7.84 590.47 C8.09 590.47 8.4 590.5 8.58 590.68 L10.44 592.53
							 C15.55 592.13 19.59 587.85 19.59 582.64 C19.59 577.18 15.13 572.73 9.65 572.73 ZM2.26 583.48 C1.78 583.48
							 1.39 583.09 1.39 582.61 C1.39 582.13 1.78 581.74 2.26 581.74 C2.74 581.74 3.14 582.13 3.14 582.61 C3.14
							 583.09 2.74 583.48 2.26 583.48 ZM9.65 573.88 C10.14 573.88 10.53 574.27 10.53 574.76 C10.53 575.24 10.14
							 575.63 9.65 575.63 C9.17 575.63 8.78 575.24 8.78 574.76 C8.78 574.27 9.17 573.88 9.65 573.88 ZM14.84
							 587.67 L14.74 587.76 C14.11 588.39 13.1 588.39 12.47 587.76 L8.4 583.7 C8.04 583.35 8.23 582.87 8.27
							 582.41 L8.27 582.32 L8.27 578.66 C8.27 577.78 8.99 577.06 9.88 577.06 L10.15 577.06 C11.03 577.06 11.75
							 577.78 11.75 578.66 L11.75 581.85 L15.31 585.4 C15.94 586.03 15.46 587.04 14.84 587.67 ZM17.53 583.48
							 C17.05 583.48 16.66 583.09 16.66 582.61 C16.66 582.13 17.05 581.74 17.53 581.74 C18.01 581.74 18.4 582.13
							 18.4 582.61 C18.4 583.09 18.01 583.48 17.53 583.48 Z" class="st1"/>
			</g>
			<g id="shape91-158" v:mID="91" v:groupContext="groupContent">
				<v:textBlock v:margins="rect(0,0,0,0)" v:tabSpace="42.5197" v:verticalAlign="0"/>
				<v:textRect cx="12.3885" cy="597.932" width="51.01" height="10.8036"/>
				<text x="-12.21" y="600.63" class="st2" v:langID="2057"><v:paragraph v:horizAlign="1"/><v:tabList/>1 hour timer</text>			</g>
		</g>
		<g id="shape94-160" v:mID="94" v:groupContext="shape" v:layerMember="0" transform="translate(709.125,-525.729)">
			<title>Dynamic connector.94</title>
			<path d="M7.09 592.53 L7.09 672.54" class="st8"/>
		</g>
		<g id="shape95-165" v:mID="95" v:groupContext="shape" v:layerMember="0" transform="translate(730.902,-424.01)">
			<title>Dynamic connector.95</title>
			<desc>Queue message</desc>
			<v:textBlock v:margins="rect(4,4,4,4)" v:tabSpace="42.5197"/>
			<v:textRect cx="94.1295" cy="585.444" width="61.58" height="17.6036"/>
			<path d="M0 585.44 L188.26 585.44" class="st8"/>
			<rect v:rectContext="textBkgnd" x="68.2472" y="580.644" width="51.7648" height="9.59985" class="st6"/>
			<text x="68.25" y="587.84" class="st7" v:langID="2057"><v:paragraph v:horizAlign="1"/><v:tabList/>Queue message</text>		</g>
		<g id="shape96-172" v:mID="96" v:groupContext="shape" v:layerMember="0" transform="translate(925.574,-397.508)">
			<title>Dynamic connector.96</title>
			<desc>Queue trigger</desc>
			<v:textBlock v:margins="rect(4,4,4,4)" v:tabSpace="42.5197"/>
			<v:textRect cx="7.08661" cy="662.955" width="54.98" height="17.6036"/>
			<path d="M7.09 592.53 L7.09 733.38" class="st8"/>
			<rect v:rectContext="textBkgnd" x="-15.495" y="658.156" width="45.1634" height="9.59985" class="st6"/>
			<text x="-15.49" y="665.36" class="st7" v:langID="2057"><v:paragraph v:horizAlign="1"/><v:tabList/>Queue trigger</text>		</g>
		<g id="shape97-179" v:mID="97" v:groupContext="shape" v:layerMember="0" transform="translate(924.834,-204.094)">
			<title>Dynamic connector.97</title>
			<desc>Store hashflag image</desc>
			<v:textBlock v:margins="rect(4,4,4,4)" v:tabSpace="42.5197"/>
			<v:textRect cx="7.82647" cy="661.636" width="77.82" height="17.6036"/>
			<path d="M6.35 592.53 L7.83 592.53 L7.83 732.22" class="st8"/>
			<rect v:rectContext="textBkgnd" x="-26.1769" y="656.836" width="68.007" height="9.59985" class="st6"/>
			<text x="-26.18" y="664.04" class="st7" v:langID="2057"><v:paragraph v:horizAlign="1"/><v:tabList/>Store hashflag image</text>		</g>
		<g id="shape47-186" v:mID="47" v:groupContext="shape" transform="translate(916.79,-227.409)">
			<title>Azure Functions (nc).47</title>
			<desc>StoreHashflagImage function</desc>
			<v:textBlock v:margins="rect(0,0,0,0)" v:tabSpace="42.5197"/>
			<v:textRect cx="13.2368" cy="606.406" width="82.34" height="29.25"/>
			<path d="M23.6 563.28 L13.94 563.28 L8.73 577.96 L15.08 578 L10.12 592.53 L23.8 573.15 L17.16 573.15 L23.6 563.28 ZM0.2
						 578.1 L1.74 579.84 L1.79 579.89 L8.73 586.53 C8.98 586.78 9.53 586.83 9.82 586.53 C10.12 586.23 10.12 585.69
						 9.82 585.39 L2.63 578.1 C2.34 577.81 2.34 577.26 2.63 576.96 L9.67 569.92 C10.07 569.63 9.97 569.08 9.67
						 568.78 C9.33 568.49 8.88 568.49 8.58 568.78 L1.74 575.43 L0.2 576.96 C-0.04 577.26 -0.09 577.81 0.2 578.1
						 ZM31.54 578.1 C31.83 577.81 31.79 577.26 31.54 576.96 L30 575.43 L23.16 568.78 C22.86 568.49 22.42 568.49
						 22.07 568.78 C21.77 569.08 21.67 569.63 22.07 569.92 L29.26 576.96 C29.55 577.26 29.55 577.81 29.26 578.1
						 L21.92 585.39 C21.62 585.69 21.62 586.23 21.92 586.53 C22.22 586.83 22.76 586.78 23.01 586.53 L29.8 579.79
						 L29.85 579.74 L31.54 578.1 Z" class="st1"/>
			<rect v:rectContext="textBkgnd" x="-26.9777" y="595.605" width="80.4287" height="21.5997" class="st13"/>
			<text x="-26.98" y="603.71" class="st2" v:langID="2057"><v:paragraph v:horizAlign="1"/><v:tabList/>StoreHashflagImage <tspan
						x="-3.14" dy="1.2em" class="st3">function</tspan></text>		</g>
		<g id="shape99-191" v:mID="99" v:groupContext="shape" v:layerMember="0" transform="translate(916.859,-234.947)">
			<title>Dynamic connector.99</title>
			<desc>Queue message</desc>
			<v:textBlock v:margins="rect(4,4,4,4)" v:tabSpace="42.5197"/>
			<v:textRect cx="-94.1295" cy="585.444" width="61.58" height="17.6036"/>
			<path d="M0 585.44 L-188.26 585.44" class="st8"/>
			<rect v:rectContext="textBkgnd" x="-120.012" y="580.644" width="51.7648" height="9.59985" class="st6"/>
			<text x="-120.01" y="587.84" class="st7" v:langID="2057"><v:paragraph v:horizAlign="1"/><v:tabList/>Queue message</text>		</g>
		<g id="shape100-198" v:mID="100" v:groupContext="shape" v:layerMember="0" transform="translate(701.6,-234.947)">
			<title>Dynamic connector.100</title>
			<desc>Queue trigger</desc>
			<v:textBlock v:margins="rect(4,4,4,4)" v:tabSpace="42.5197"/>
			<v:textRect cx="-94.1295" cy="585.444" width="54.98" height="17.6036"/>
			<path d="M0 585.44 L-188.26 585.44" class="st8"/>
			<rect v:rectContext="textBkgnd" x="-116.711" y="580.644" width="45.1634" height="9.59985" class="st6"/>
			<text x="-116.71" y="587.84" class="st7" v:langID="2057"><v:paragraph v:horizAlign="1"/><v:tabList/>Queue trigger</text>		</g>
		<g id="shape101-205" v:mID="101" v:groupContext="shape" v:layerMember="0" transform="translate(508.388,-237.09)">
			<title>Dynamic connector.101</title>
			<desc>Fetch hashflag image</desc>
			<v:textBlock v:margins="rect(4,4,4,4)" v:tabSpace="42.5197"/>
			<v:textRect cx="204.261" cy="685.623" width="78.4" height="17.6036"/>
			<path d="M0 592.53 L408.52 778.72" class="st8"/>
			<rect v:rectContext="textBkgnd" x="169.969" y="680.824" width="68.5849" height="9.59985" class="st13"/>
			<text x="169.97" y="688.02" class="st7" v:langID="2057"><v:paragraph v:horizAlign="1"/><v:tabList/>Fetch hashflag image</text>		</g>
		<g id="shape102-212" v:mID="102" v:groupContext="shape" v:layerMember="0" transform="translate(489.715,-202.677)">
			<title>Dynamic connector.102</title>
			<desc>Store hero image</desc>
			<v:textBlock v:margins="rect(4,4,4,4)" v:tabSpace="42.5197"/>
			<v:textRect cx="7.82496" cy="659.895" width="65.77" height="17.6036"/>
			<path d="M6.35 592.53 L7.82 592.53 L7.82 728.74" class="st8"/>
			<rect v:rectContext="textBkgnd" x="-20.1531" y="655.095" width="55.9564" height="9.59985" class="st6"/>
			<text x="-20.15" y="662.3" class="st7" v:langID="2057"><v:paragraph v:horizAlign="1"/><v:tabList/>Store hero image</text>		</g>
		<g id="shape103-219" v:mID="103" v:groupContext="shape" v:layerMember="0" transform="translate(481.738,-234.947)">
			<title>Dynamic connector.103</title>
			<desc>Queue message</desc>
			<v:textBlock v:margins="rect(4,4,4,4)" v:tabSpace="42.5197"/>
			<v:textRect cx="-94.1295" cy="585.444" width="61.58" height="17.6036"/>
			<path d="M0 585.44 L-188.26 585.44" class="st8"/>
			<rect v:rectContext="textBkgnd" x="-120.012" y="580.644" width="51.7648" height="9.59985" class="st13"/>
			<text x="-120.01" y="587.84" class="st7" v:langID="2057"><v:paragraph v:horizAlign="1"/><v:tabList/>Queue message</text>		</g>
		<g id="shape104-226" v:mID="104" v:groupContext="shape" v:layerMember="0" transform="translate(69.2346,-234.947)">
			<title>Dynamic connector.104</title>
			<desc>Read queue</desc>
			<v:textBlock v:margins="rect(4,4,4,4)" v:tabSpace="42.5197"/>
			<v:textRect cx="98.6223" cy="585.444" width="48.56" height="17.6036"/>
			<path d="M0 585.44 L197.24 585.44" class="st8"/>
			<rect v:rectContext="textBkgnd" x="79.2535" y="580.644" width="38.7378" height="9.59985" class="st6"/>
			<text x="79.25" y="587.84" class="st7" v:langID="2057"><v:paragraph v:horizAlign="1"/><v:tabList/>Read queue</text>		</g>
		<g id="shape106-233" v:mID="106" v:groupContext="shape" v:layerMember="0" transform="translate(46.3465,-256.659)">
			<title>Dynamic connector.106</title>
			<desc>Tweet hero image</desc>
			<v:textBlock v:margins="rect(4,4,4,4)" v:tabSpace="42.5197"/>
			<v:textRect cx="7.08661" cy="513.483" width="68.69" height="17.6036"/>
			<path d="M7.09 592.53 L7.09 434.44" class="st8"/>
			<rect v:rectContext="textBkgnd" x="-22.3484" y="508.684" width="58.8702" height="9.59985" class="st6"/>
			<text x="-22.35" y="515.88" class="st7" v:langID="2057"><v:paragraph v:horizAlign="1"/><v:tabList/>Tweet hero image</text>		</g>
		<g id="shape107-240" v:mID="107" v:groupContext="shape" v:layerMember="0" transform="translate(64.3901,-237.198)">
			<title>Dynamic connector.107</title>
			<desc>Fetch hero image</desc>
			<v:textBlock v:margins="rect(4,4,4,4)" v:tabSpace="42.5197"/>
			<v:textRect cx="208.7" cy="684.644" width="66.35" height="17.6036"/>
			<path d="M0 592.53 L417.4 776.76" class="st8"/>
			<rect v:rectContext="textBkgnd" x="180.433" y="679.844" width="56.5343" height="9.59985" class="st13"/>
			<text x="180.43" y="687.04" class="st7" v:langID="2057"><v:paragraph v:horizAlign="1"/><v:tabList/>Fetch hero image</text>		</g>
		<g id="shape137-247" v:mID="137" v:groupContext="shape" v:layerMember="0" transform="translate(61.5864,-69.8464)">
			<title>Dynamic connector.137</title>
			<path d="M-7.04 592.53 L-7.04 462.46 L-7.13 462.46" class="st8"/>
		</g>
		<g id="shape139-252" v:mID="139" v:groupContext="shape" transform="translate(918.456,-545.353)">
			<title>Storage table</title>
			<desc>hashflags table</desc>
			<v:textBlock v:margins="rect(0,0,0,0)" v:verticalAlign="0"/>
			<v:textRect cx="14.91" cy="610.73" width="72" height="31.5"/>
			<path d="M21.31 567.93 L7.1 567.93 L0 580.23 L7.1 592.53 L21.31 592.53 L28.41 580.23 L21.31 567.93 ZM13.52 574.37 L16.79
						 574.37 L16.79 577.65 L13.52 577.65 L13.52 574.37 ZM13.52 578.49 L16.79 578.49 L16.79 581.77 L13.52 581.77
						 L13.52 578.49 ZM13.52 582.61 L16.79 582.61 L16.79 585.89 L13.52 585.89 L13.52 582.61 ZM9.38 574.37 L12.65
						 574.37 L12.65 577.65 L9.38 577.65 L9.38 574.37 ZM9.38 578.49 L12.65 578.49 L12.65 581.77 L9.38 581.77 L9.38
						 578.49 ZM9.38 582.61 L12.65 582.61 L12.65 585.89 L9.38 585.89 L9.38 582.61 ZM20.9 587.7 L7.48 587.7 L7.48
						 574.28 L8.35 574.28 L8.35 586.79 L8.38 586.79 L8.38 586.8 L20.9 586.8 L20.9 587.7 ZM20.93 585.89 L17.66
						 585.89 L17.66 582.61 L20.93 582.61 L20.93 585.89 ZM20.93 581.77 L17.66 581.77 L17.66 578.49 L20.93 578.49
						 L20.93 581.77 ZM20.93 577.65 L17.66 577.65 L17.66 574.37 L20.93 574.37 L20.93 577.65 Z" class="st1"/>
			<text x="-14.87" y="603.08" class="st2" v:langID="2057"><v:paragraph v:horizAlign="1"/><v:tabList/>hashflags table</text>		</g>
		<g id="shape140-255" v:mID="140" v:groupContext="shape" v:layerMember="0" transform="translate(725.25,-437.439)">
			<title>Dynamic connector.140</title>
			<desc>Store hashflag state</desc>
			<v:textBlock v:margins="rect(4,4,4,4)" v:tabSpace="42.5197"/>
			<v:textRect cx="96.1829" cy="532.422" width="74.32" height="17.6036"/>
			<path d="M0 592.53 L192.37 472.31" class="st8"/>
			<rect v:rectContext="textBkgnd" x="63.9314" y="527.623" width="64.5032" height="9.59985" class="st6"/>
			<text x="63.93" y="534.82" class="st7" v:langID="2057"><v:paragraph v:horizAlign="1"/><v:tabList/>Store hashflag state</text>		</g>
		<g id="shape148-262" v:mID="148" v:groupContext="shape" transform="translate(43.5776,-424.364)">
			<title>Sheet.148</title>
			<desc>Twitter</desc>
			<v:textBlock v:margins="rect(0,0,0,0)" v:tabSpace="42.5197"/>
			<v:textRect cx="8.22708" cy="596.861" width="26.79" height="15.9949"/>
			<path d="M6.31 592.53 C13.87 592.53 18.01 586.26 18.01 580.83 C18.01 580.65 18.01 580.47 18 580.29 A8.37039 8.37039 -180
						 0 0 20.05 578.16 A8.21158 8.21158 0 0 1 17.69 578.81 A4.12825 4.12825 -180 0 0 19.5 576.54 A8.24446 8.24446
						 0 0 1 16.89 577.53 A4.11782 4.11782 -180 0 0 9.87 581.29 A11.6797 11.6797 0 0 1 1.4 576.99 A4.11702 4.11702
						 -180 0 0 2.67 582.48 A4.08333 4.08333 0 0 1 0.8 581.97 C0.8 581.98 0.8 582 0.8 582.02 A4.11541 4.11541 -180
						 0 0 4.1 586.05 A4.10739 4.10739 0 0 1 2.24 586.12 A4.11862 4.11862 -180 0 0 6.09 588.98 A8.25489 8.25489
						 0 0 1 0.98 590.74 A8.3744 8.3744 0 0 1 0 590.68 A11.6468 11.6468 -180 0 0 6.31 592.53 L6.31 592.53 Z"
					class="st14"/>
			<path d="M6.31 592.53 C13.87 592.53 18.01 586.26 18.01 580.83 C18.01 580.65 18.01 580.47 18 580.29 A8.37039 8.37039 -180
						 0 0 20.05 578.16 A8.21158 8.21158 0 0 1 17.69 578.81 A4.12825 4.12825 -180 0 0 19.5 576.54 A8.24446 8.24446
						 0 0 1 16.89 577.53 A4.11782 4.11782 -180 0 0 9.87 581.29 A11.6797 11.6797 0 0 1 1.4 576.99 A4.11702 4.11702
						 -180 0 0 2.67 582.48 A4.08333 4.08333 0 0 1 0.8 581.97 C0.8 581.98 0.8 582 0.8 582.02 A4.11541 4.11541 -180
						 0 0 4.1 586.05 A4.10739 4.10739 0 0 1 2.24 586.12 A4.11862 4.11862 -180 0 0 6.09 588.98 A8.25489 8.25489
						 0 0 1 0.98 590.74 A8.3744 8.3744 0 0 1 0 590.68 A11.6468 11.6468 -180 0 0 6.31 592.53" class="st15"/>
			<text x="-3.56" y="599.26" class="st16" v:langID="2057"><v:paragraph v:horizAlign="1"/><v:tabList/>Twitter</text>		</g>
	</g>
</svg>
