<?xml version="1.0" encoding="UTF-8" standalone="no"?>
<!DOCTYPE svg PUBLIC "-//W3C//DTD SVG 1.1//EN" "http://www.w3.org/Graphics/SVG/1.1/DTD/svg11.dtd">
<!-- Generated by Microsoft Visio, SVG Export architecture.svg Page-1 -->
<svg xmlns="http://www.w3.org/2000/svg" xmlns:xlink="http://www.w3.org/1999/xlink" xmlns:ev="http://www.w3.org/2001/xml-events"
		xmlns:v="http://schemas.microsoft.com/visio/2003/SVGExtensions/" width="16.0354in" height="11.6929in"
		viewBox="0 0 1154.55 841.89" xml:space="preserve" color-interpolation-filters="sRGB" class="st15">
	<v:documentProperties v:langID="2057" v:metric="true" v:viewMarkup="false">
		<v:userDefs>
			<v:ud v:nameU="msvNoAutoConnect" v:val="VT0(1):26"/>
		</v:userDefs>
	</v:documentProperties>

	<style type="text/css">
	<![CDATA[
		.st1 {fill:#0078d7;stroke:none;stroke-linecap:butt;stroke-width:0.75}
		.st2 {fill:#0078d7;font-family:Segoe UI;font-size:0.75em}
		.st3 {font-size:1em}
		.st4 {marker-start:url(#mrkr1-22);stroke:#000000;stroke-linecap:round;stroke-linejoin:round;stroke-width:0.75}
		.st5 {fill:#000000;fill-opacity:1;stroke:#000000;stroke-opacity:1;stroke-width:0.22935779816514}
		.st6 {fill:#ffffff;stroke:none;stroke-linecap:butt;stroke-width:7.2}
		.st7 {fill:#000000;font-family:Calibri;font-size:0.666664em}
		.st8 {marker-end:url(#mrkr1-41);stroke:#000000;stroke-linecap:round;stroke-linejoin:round;stroke-width:0.75}
		.st9 {fill:#0078d7}
		.st10 {stroke:none;stroke-linecap:butt;stroke-width:0.75}
		.st11 {fill:#ffffff;stroke:#ffffff;stroke-linecap:butt;stroke-width:1.275}
		.st12 {fill:#0078d7;stroke:none;stroke-linecap:butt;stroke-width:0.6375}
		.st13 {fill:#ffffff;stroke:none;stroke-linecap:butt}
		.st14 {fill:#ffffff;stroke:none;stroke-linecap:round;stroke-linejoin:round;stroke-width:0.75}
		.st15 {fill:none;fill-rule:evenodd;font-size:12px;overflow:visible;stroke-linecap:square;stroke-miterlimit:3}
	]]>
	</style>

	<defs id="Markers">
		<g id="lend1">
			<path d="M 1 -1 L 0 0 L 1 1 " style="stroke-linecap:round;stroke-linejoin:round;fill:none"/>
		</g>
		<marker id="mrkr1-22" class="st5" v:arrowType="1" v:arrowSize="2" orient="auto" markerUnits="strokeWidth"
				overflow="visible">
			<use xlink:href="#lend1" transform="scale(4.36) "/>
		</marker>
		<marker id="mrkr1-41" class="st5" v:arrowType="1" v:arrowSize="2" orient="auto" markerUnits="strokeWidth"
				overflow="visible">
			<use xlink:href="#lend1" transform="scale(-4.36,-4.36) "/>
		</marker>
	</defs>
	<g v:mID="0" v:index="1" v:groupContext="foregroundPage">
		<title>Page-1</title>
		<v:pageProperties v:drawingScale="0.0393701" v:pageScale="0.0393701" v:drawingUnits="24" v:shadowOffsetX="8.50394"
				v:shadowOffsetY="-8.50394"/>
		<v:layer v:name="Connector" v:index="0"/>
		<g id="group1-1" transform="translate(123.823,-651.969)" v:mID="1" v:groupContext="group">
			<title>Cloud Service</title>
			<desc>Twitter</desc>
			<g id="group2-2" transform="translate(18.9844,-14.6653)" v:mID="2" v:groupContext="group">
				<title>Sheet.2</title>
				<g id="shape3-3" v:mID="3" v:groupContext="shape">
					<title>Sheet.3</title>
					<ellipse cx="1.545" cy="840.345" rx="1.545" ry="1.545" class="st1"/>
				</g>
			</g>
			<g id="group4-5" transform="translate(10.9328,-9.42712)" v:mID="4" v:groupContext="group">
				<title>Sheet.4</title>
				<g id="shape5-6" v:mID="5" v:groupContext="shape">
					<title>Sheet.5</title>
					<path d="M1.55 838.8 C0.7 838.8 0 839.5 0 840.35 C0 841.2 0.69 841.89 1.55 841.89 C2.4 841.89 3.09 841.21 3.09
								 840.35 C3.09 839.5 2.41 838.8 1.55 838.8 Z" class="st1"/>
				</g>
			</g>
			<g id="group6-8" v:mID="6" v:groupContext="group">
				<title>Sheet.6</title>
				<g id="shape7-9" v:mID="7" v:groupContext="shape">
					<title>Sheet.7</title>
					<path d="M25.55 826.21 L24.14 826.69 L23.78 827.44 L24.32 828.56 L24.38 828.71 L23.59 829.48 L22.31 828.88 L21.55
								 829.2 L21.16 830.36 L21.11 830.52 L20 830.52 L19.53 829.18 L18.77 828.88 L17.67 829.44 L17.52 829.51
								 L16.74 828.75 L17.33 827.45 L17.02 826.7 L16.03 826.31 L16.06 826.26 L16.06 825.16 L17.21 824.67
								 L17.43 823.91 L16.81 822.81 L16.72 822.66 L17.49 821.88 L18.76 822.49 L19.53 822.18 L19.9 821.09
								 L19.96 821.02 L21.06 821.02 L21.54 822.27 L22.3 822.53 L23.41 821.95 L23.55 821.86 L24.33 822.64
								 L23.74 823.91 L24.04 824.67 L25.3 825.05 L25.55 825.11 L25.55 826.21 L25.55 826.21 ZM7.63 830.39
								 L8.96 829.91 L9.28 829.15 L8.72 828.05 L8.65 827.89 L9.43 827.12 L10.71 827.73 L11.47 827.41 L11.85
								 826.34 L11.9 826.3 L13.02 826.3 L13.49 827.52 L14.25 827.79 L15.35 827.19 L15.5 827.1 L16.28 827.88
								 L15.68 829.15 L16 829.91 L17.07 830.29 L17.11 830.35 L17.11 831.45 L15.9 831.93 L15.63 832.69 L16.22
								 833.8 L16.31 833.94 L15.54 834.73 L14.25 834.12 L13.49 834.44 L13.11 835.62 L13.05 835.79 L11.96
								 835.79 L11.47 834.45 L10.72 834.12 L9.61 834.68 L9.46 834.75 L8.68 833.97 L9.28 832.7 L8.97 831.94
								 L7.79 831.55 L7.63 831.49 L7.63 830.39 L7.63 830.39 ZM27.96 824.79 L27.36 824.6 L27.52 823.99 C27.67
								 823.39 27.76 822.78 27.76 822.16 C27.76 818.19 24.52 814.95 20.53 814.95 C17.61 814.95 14.99 816.69
								 13.87 819.38 L13.45 820.36 L12.77 819.55 C11.82 818.44 10.46 817.82 9.02 817.82 C6.31 817.82 4.1
								 820.02 4.1 822.73 C4.1 823.18 4.17 823.63 4.28 824.08 L4.45 824.66 L3.88 824.87 C1.46 825.77 0 827.73
								 0 830.15 C0 833.32 2.6 835.79 5.92 835.79 L7.39 835.79 C7.35 835.79 7.32 836.34 7.32 836.61 C7.32
								 839.52 9.69 841.89 12.59 841.89 C14.71 841.89 16.62 840.63 17.45 838.67 L17.75 837.95 L18.26 838.54
								 C18.95 839.35 19.95 839.81 20.99 839.81 C22.98 839.81 24.59 838.18 24.59 836.2 C24.59 836.06 24.58
								 835.79 24.56 835.79 L26.17 835.79 C29.5 835.79 32.08 833.32 32.08 830.15 C32.08 827.64 30.51 825.58
								 27.96 824.79 Z" class="st1"/>
				</g>
			</g>
			<g id="shape1-11" v:mID="1" v:groupContext="groupContent">
				<v:textBlock v:margins="rect(0,0,0,0)" v:tabSpace="42.5197" v:verticalAlign="0"/>
				<v:textRect cx="16.0414" cy="847.742" width="29.81" height="11.7036"/>
				<text x="2.37" y="850.66" class="st2" v:langID="2057"><v:paragraph v:spLine="-1.3" v:horizAlign="1"/><v:tabList/>Twitter</text>			</g>
		</g>
		<g id="shape8-13" v:mID="8" v:groupContext="shape" transform="translate(345.546,-650.811)">
			<title>Azure Functions (nc)</title>
			<desc>ActiveHashflags function</desc>
			<v:textBlock v:margins="rect(0,0,0,0)" v:tabSpace="42.5197"/>
			<v:textRect cx="13.1766" cy="855.357" width="65.48" height="29.25"/>
			<path d="M23.6 812.64 L13.94 812.64 L8.73 827.31 L15.08 827.36 L10.12 841.89 L23.8 822.51 L17.16 822.51 L23.6 812.64
						 ZM0.2 827.46 L1.74 829.2 L1.79 829.25 L8.73 835.89 C8.98 836.14 9.53 836.19 9.82 835.89 C10.12 835.59 10.12
						 835.05 9.82 834.75 L2.63 827.46 C2.34 827.17 2.34 826.62 2.63 826.32 L9.67 819.28 C10.07 818.99 9.97 818.44
						 9.67 818.14 C9.33 817.85 8.88 817.85 8.58 818.14 L1.74 824.79 L0.2 826.32 C-0.04 826.62 -0.09 827.17 0.2
						 827.46 ZM31.54 827.46 C31.83 827.17 31.79 826.62 31.54 826.32 L30 824.79 L23.16 818.14 C22.86 817.85 22.42
						 817.85 22.07 818.14 C21.77 818.44 21.67 818.99 22.07 819.28 L29.26 826.32 C29.55 826.62 29.55 827.17 29.26
						 827.46 L21.92 834.75 C21.62 835.05 21.62 835.59 21.92 835.89 C22.22 836.19 22.76 836.14 23.01 835.89 L29.8
						 829.15 L29.85 829.1 L31.54 827.46 Z" class="st1"/>
			<text x="-18.22" y="852.66" class="st2" v:langID="2057"><v:paragraph v:horizAlign="1"/><v:tabList/>ActiveHashflags <tspan
						x="-3.2" dy="1.2em" class="st3">function</tspan></text>		</g>
		<g id="shape9-17" v:mID="9" v:groupContext="shape" v:layerMember="0" transform="translate(156.739,-658.35)">
			<title>Dynamic connector</title>
			<desc>Get initial data</desc>
			<v:textBlock v:margins="rect(4,4,4,4)" v:tabSpace="42.5197"/>
			<v:textRect cx="94.4384" cy="834.803" width="57.75" height="17.6036"/>
			<path d="M0 834.8 L188.88 834.8" class="st4"/>
			<rect v:rectContext="textBkgnd" x="70.4741" y="830.003" width="47.9287" height="9.59985" class="st6"/>
			<text x="70.47" y="837.2" class="st7" v:langID="2057"><v:paragraph v:horizAlign="1"/><v:tabList/>Get initial data</text>		</g>
		<g id="group18-25" transform="translate(566.929,-652.914)" v:mID="18" v:groupContext="group">
			<title>Storage blob</title>
			<desc>activeHashflags blob</desc>
			<g id="shape19-26" v:mID="19" v:groupContext="shape">
				<title>Sheet.19</title>
				<path d="M21.69 816.85 L7.23 816.85 L0 829.37 L7.23 841.89 L21.69 841.89 L28.92 829.37 L21.69 816.85 ZM21.73 834.96
							 C21.73 836.04 20.85 836.92 19.77 836.92 L9.15 836.92 C8.07 836.92 7.19 836.04 7.19 834.96 L7.19 823.77
							 C7.19 822.69 8.07 821.82 9.15 821.82 L17.03 821.82 C17.81 821.82 18.49 821.82 18.49 821.82 L18.71 821.82
							 L21.73 824.8 L21.73 826.39 L21.73 834.96 Z" class="st1"/>
			</g>
			<g id="shape20-28" v:mID="20" v:groupContext="shape" transform="translate(12.1013,-8.085)">
				<title>Sheet.20</title>
				<path d="M1.23 839.46 C1.21 839.35 1.18 839.25 1.15 839.17 C1.11 839.09 1.07 839.03 1.02 838.98 C0.98 838.94 0.92
							 838.9 0.86 838.88 C0.8 838.86 0.73 838.85 0.66 838.85 C0.53 838.85 0.42 838.88 0.33 838.95 C0.25 839.01
							 0.18 839.1 0.13 839.23 C0.08 839.35 0.05 839.51 0.03 839.7 C0.01 839.88 0 840.1 0 840.35 C0 840.65 0.01
							 840.9 0.04 841.1 C0.06 841.3 0.1 841.45 0.15 841.57 C0.2 841.69 0.27 841.77 0.35 841.82 C0.43 841.87
							 0.53 841.89 0.64 841.89 C0.73 841.89 0.8 841.88 0.87 841.85 C0.93 841.82 0.99 841.78 1.04 841.73 C1.09
							 841.67 1.13 841.6 1.16 841.52 C1.2 841.44 1.22 841.34 1.24 841.23 C1.26 841.12 1.28 841 1.29 840.86
							 C1.29 840.72 1.3 840.57 1.3 840.4 C1.3 840.2 1.29 840.02 1.28 839.86 C1.27 839.71 1.26 839.58 1.23 839.46
							 Z" class="st1"/>
			</g>
			<g id="shape21-30" v:mID="21" v:groupContext="shape" transform="translate(15.5167,-13.9237)">
				<title>Sheet.21</title>
				<path d="M1.23 839.46 C1.21 839.35 1.18 839.25 1.15 839.17 C1.11 839.09 1.07 839.03 1.02 838.98 C0.98 838.94 0.92
							 838.9 0.86 838.88 C0.8 838.86 0.73 838.85 0.65 838.85 C0.53 838.85 0.42 838.88 0.33 838.95 C0.25 839.01
							 0.18 839.1 0.13 839.23 C0.08 839.35 0.05 839.51 0.03 839.7 C0.01 839.88 0 840.1 0 840.35 C0 840.65 0.01
							 840.9 0.04 841.1 C0.06 841.3 0.1 841.45 0.15 841.57 C0.2 841.69 0.27 841.77 0.35 841.82 C0.43 841.87
							 0.53 841.89 0.64 841.89 C0.73 841.89 0.8 841.88 0.87 841.85 C0.93 841.82 0.99 841.78 1.04 841.73 C1.09
							 841.67 1.13 841.6 1.16 841.52 C1.2 841.44 1.22 841.34 1.24 841.23 C1.26 841.12 1.28 841 1.29 840.86
							 C1.29 840.72 1.3 840.57 1.3 840.4 C1.3 840.2 1.29 840.02 1.28 839.86 C1.27 839.71 1.25 839.58 1.23 839.46
							 Z" class="st1"/>
			</g>
			<g id="shape22-32" v:mID="22" v:groupContext="shape" transform="translate(8.2605,-6.04125)">
				<title>Sheet.22</title>
				<path d="M9.98 828.94 C9.71 828.93 9.26 828.93 8.76 828.93 L0.88 828.93 C0.39 828.93 0 829.33 0 829.81 L0 841.01
							 C0 841.5 0.39 841.89 0.88 841.89 L11.51 841.89 C11.99 841.89 12.4 841.49 12.4 841.01 L12.4 831.39 L9.98
							 831.39 L9.98 828.94 L9.98 828.94 ZM3.27 831.16 C3.27 831.13 3.28 831.1 3.29 831.08 C3.3 831.05 3.31
							 831.03 3.32 831.02 C3.34 831 3.36 830.98 3.39 830.97 L4.3 830.37 C4.31 830.37 4.33 830.36 4.34 830.35
							 C4.36 830.35 4.38 830.34 4.41 830.34 C4.43 830.34 4.47 830.33 4.51 830.33 C4.55 830.33 4.61 830.33 4.68
							 830.33 C4.76 830.33 4.83 830.33 4.88 830.34 C4.93 830.34 4.97 830.35 5 830.35 C5.02 830.36 5.04 830.37
							 5.05 830.38 C5.06 830.4 5.06 830.41 5.06 830.43 L5.06 833.95 L5.76 833.95 C5.78 833.95 5.79 833.96 5.81
							 833.97 C5.83 833.98 5.84 834 5.85 834.03 C5.87 834.05 5.87 834.09 5.88 834.13 C5.88 834.17 5.89 834.23
							 5.89 834.29 C5.89 834.35 5.88 834.4 5.88 834.45 C5.87 834.49 5.86 834.52 5.85 834.55 C5.84 834.57 5.82
							 834.59 5.81 834.6 C5.79 834.61 5.78 834.62 5.76 834.62 L3.41 834.62 C3.39 834.62 3.37 834.61 3.36 834.6
							 C3.34 834.59 3.33 834.57 3.32 834.55 C3.3 834.52 3.29 834.49 3.29 834.45 C3.28 834.4 3.28 834.35 3.28
							 834.29 C3.28 834.23 3.28 834.17 3.29 834.13 C3.29 834.09 3.3 834.05 3.31 834.03 C3.33 834 3.34 833.98
							 3.35 833.97 C3.37 833.96 3.39 833.95 3.41 833.95 L4.2 833.95 L4.2 831.18 L3.52 831.56 C3.47 831.58 3.42
							 831.6 3.39 831.6 C3.36 831.61 3.34 831.6 3.32 831.58 C3.3 831.57 3.29 831.53 3.28 831.49 C3.27 831.44
							 3.27 831.38 3.27 831.29 C3.27 831.24 3.27 831.2 3.27 831.16 ZM5.93 839.23 C5.88 839.51 5.79 839.74 5.66
							 839.93 C5.54 840.13 5.38 840.28 5.18 840.38 C4.98 840.48 4.74 840.53 4.45 840.53 C4.16 840.53 3.92 840.48
							 3.73 840.38 C3.54 840.28 3.38 840.14 3.27 839.95 C3.16 839.76 3.08 839.53 3.04 839.26 C2.99 838.99 2.97
							 838.69 2.97 838.34 C2.97 838.01 3 837.7 3.05 837.43 C3.11 837.15 3.2 836.92 3.32 836.72 C3.45 836.53
							 3.61 836.38 3.81 836.28 C4.01 836.18 4.25 836.12 4.53 836.12 C4.82 836.12 5.07 836.17 5.26 836.27 C5.45
							 836.37 5.6 836.52 5.71 836.71 C5.83 836.89 5.9 837.12 5.95 837.39 C5.99 837.66 6.01 837.97 6.01 838.31
							 C6.01 838.65 5.99 838.96 5.93 839.23 ZM9.29 840.28 C9.29 840.33 9.28 840.36 9.26 840.39 C9.25 840.41
							 9.24 840.43 9.22 840.44 C9.21 840.45 9.19 840.46 9.17 840.46 L6.82 840.46 C6.8 840.46 6.79 840.45 6.77
							 840.44 C6.76 840.43 6.74 840.41 6.73 840.39 C6.72 840.36 6.71 840.33 6.7 840.28 C6.7 840.24 6.69 840.19
							 6.69 840.13 C6.69 840.07 6.7 840.01 6.7 839.97 C6.71 839.93 6.72 839.89 6.73 839.87 C6.74 839.84 6.75
							 839.82 6.77 839.81 C6.78 839.8 6.8 839.79 6.82 839.79 L7.61 839.79 L7.61 837.02 L6.93 837.4 C6.88 837.42
							 6.84 837.44 6.81 837.44 C6.78 837.45 6.75 837.44 6.73 837.42 C6.71 837.4 6.7 837.37 6.69 837.33 C6.69
							 837.28 6.68 837.22 6.68 837.13 C6.68 837.08 6.69 837.04 6.69 837 C6.69 836.97 6.7 836.94 6.7 836.92
							 C6.71 836.89 6.73 836.87 6.74 836.86 C6.76 836.84 6.78 836.82 6.8 836.81 L7.72 836.21 C7.73 836.2 7.74
							 836.2 7.76 836.19 C7.77 836.19 7.8 836.18 7.82 836.18 C7.85 836.18 7.88 836.17 7.93 836.17 C7.97 836.17
							 8.02 836.17 8.09 836.17 C8.18 836.17 8.24 836.17 8.3 836.18 C8.35 836.18 8.39 836.19 8.41 836.19 C8.44
							 836.2 8.46 836.21 8.46 836.22 C8.47 836.24 8.48 836.25 8.48 836.27 L8.48 839.79 L9.17 839.79 C9.19 839.79
							 9.21 839.8 9.23 839.81 C9.24 839.82 9.26 839.84 9.27 839.87 C9.28 839.89 9.29 839.93 9.3 839.97 C9.3
							 840.01 9.3 840.07 9.3 840.13 C9.3 840.19 9.3 840.24 9.29 840.28 ZM9.35 833.39 C9.29 833.67 9.2 833.9
							 9.08 834.1 C8.95 834.29 8.79 834.44 8.59 834.54 C8.39 834.64 8.15 834.69 7.87 834.69 C7.57 834.69 7.33
							 834.64 7.14 834.54 C6.95 834.44 6.8 834.3 6.69 834.11 C6.58 833.92 6.5 833.7 6.45 833.42 C6.41 833.15
							 6.38 832.85 6.38 832.51 C6.38 832.17 6.41 831.86 6.47 831.59 C6.52 831.31 6.61 831.08 6.74 830.88 C6.86
							 830.69 7.02 830.54 7.22 830.44 C7.42 830.34 7.66 830.29 7.95 830.29 C8.24 830.29 8.48 830.34 8.67 830.44
							 C8.87 830.53 9.02 830.68 9.13 830.87 C9.24 831.05 9.32 831.28 9.36 831.55 C9.41 831.82 9.43 832.13 9.43
							 832.47 C9.43 832.81 9.4 833.12 9.35 833.39 Z" class="st1"/>
			</g>
			<g id="shape18-34" v:mID="18" v:groupContext="groupContent">
				<v:textBlock v:margins="rect(0,0,0,0)" v:tabSpace="42.5197" v:verticalAlign="0"/>
				<v:textRect cx="14.46" cy="847.292" width="83.88" height="10.8036"/>
				<text x="-26.57" y="849.99" class="st2" v:langID="2057"><v:paragraph v:horizAlign="1"/><v:tabList/>activeHashflags blob</text>			</g>
		</g>
		<g id="shape23-36" v:mID="23" v:groupContext="shape" v:layerMember="0" transform="translate(377.219,-658.35)">
			<title>Dynamic connector.23</title>
			<desc>Store JSON</desc>
			<v:textBlock v:margins="rect(4,4,4,4)" v:tabSpace="42.5197"/>
			<v:textRect cx="94.2102" cy="834.803" width="45.66" height="17.6036"/>
			<path d="M0 834.8 L188.42 834.8" class="st8"/>
			<rect v:rectContext="textBkgnd" x="76.2905" y="830.003" width="35.8396" height="9.59985" class="st6"/>
			<text x="76.29" y="837.2" class="st7" v:langID="2057"><v:paragraph v:horizAlign="1"/><v:tabList/>Store JSON</text>		</g>
		<g id="group27-44" transform="translate(349.029,-776.118)" v:mID="27" v:groupContext="group">
			<title>Scheduler</title>
			<desc>1 hour timer</desc>
			<g id="shape28-45" v:mID="28" v:groupContext="shape">
				<title>Sheet.28</title>
				<path d="M13.45 832.64 L13.45 833.79 L13.45 835.59 C13.27 835.57 12.36 835.44 12.2 835.4 C11.59 835.26 10.99 835.08
							 10.4 834.84 C10.21 834.77 10.02 834.69 9.83 834.6 L9.56 834.47 L9.27 834.33 L9.01 834.19 L8.74 834.04
							 C8.56 833.93 8.39 833.83 8.21 833.71 C7.51 833.26 6.87 832.72 6.26 832.12 C5.66 831.53 5.13 830.85 4.67
							 830.13 C4.19 829.4 3.8 828.62 3.5 827.81 C2.89 826.18 2.62 824.41 2.74 822.67 C2.86 820.94 3.37 819.25
							 4.18 817.76 C4.98 816.27 6.07 815 7.3 814.02 C7.92 813.53 8.56 813.11 9.22 812.76 C9.88 812.41 10.55
							 812.13 11.2 811.9 C12.53 811.46 13.82 811.26 14.97 811.23 C16.12 811.19 17.13 811.31 17.95 811.47 C18.77
							 811.62 19.4 811.83 19.83 811.97 C20.05 812.05 20.21 812.11 20.32 812.16 L20.48 812.22 L20.49 812.22
							 C20.56 812.25 20.64 812.22 20.68 812.15 C20.72 812.08 20.7 811.98 20.62 811.94 L20.46 811.85 C20.36
							 811.79 20.2 811.71 19.99 811.6 C19.57 811.39 18.95 811.1 18.11 810.83 C17.28 810.55 16.22 810.31 14.99
							 810.22 C13.75 810.13 12.32 810.21 10.82 810.58 C9.32 810.94 7.74 811.61 6.26 812.62 C4.78 813.63 3.4
							 815 2.33 816.67 C1.26 818.33 0.49 820.3 0.19 822.39 C0.04 823.44 -0 824.51 0.09 825.58 C0.18 826.66
							 0.38 827.72 0.71 828.76 C1.04 829.79 1.48 830.79 2.03 831.73 C2.59 832.66 3.25 833.53 3.99 834.32 C4.73
							 835.1 5.56 835.79 6.44 836.38 C6.66 836.53 6.88 836.66 7.11 836.8 L7.45 837 L7.81 837.19 L8.14 837.36
							 L8.5 837.52 C8.73 837.63 8.97 837.73 9.21 837.82 C10.19 838.21 11.2 838.48 12.2 838.64 C12.54 838.7
							 13.11 838.74 13.45 838.77 L13.45 841.89 L17.87 837.27 L13.45 832.64 Z" class="st9"/>
				<path d="M13.45 832.64 L13.45 833.79 L13.45 835.59 C13.27 835.57 12.36 835.44 12.2 835.4 C11.59 835.26 10.99 835.08
							 10.4 834.84 C10.21 834.77 10.02 834.69 9.83 834.6 L9.56 834.47 L9.27 834.33 L9.01 834.19 L8.74 834.04
							 C8.56 833.93 8.39 833.83 8.21 833.71 C7.51 833.26 6.87 832.72 6.26 832.12 C5.66 831.53 5.13 830.85 4.67
							 830.13 C4.19 829.4 3.8 828.62 3.5 827.81 C2.89 826.18 2.62 824.41 2.74 822.67 C2.86 820.94 3.37 819.25
							 4.18 817.76 C4.98 816.27 6.07 815 7.3 814.02 C7.92 813.53 8.56 813.11 9.22 812.76 C9.88 812.41 10.55
							 812.13 11.2 811.9 C12.53 811.46 13.82 811.26 14.97 811.23 C16.12 811.19 17.13 811.31 17.95 811.47 C18.77
							 811.62 19.4 811.83 19.83 811.97 C20.05 812.05 20.21 812.11 20.32 812.16 L20.48 812.22 L20.49 812.22
							 C20.56 812.25 20.64 812.22 20.68 812.15 C20.72 812.08 20.7 811.98 20.62 811.94 L20.46 811.85 C20.36
							 811.79 20.2 811.71 19.99 811.6 C19.57 811.39 18.95 811.1 18.11 810.83 C17.28 810.55 16.22 810.31 14.99
							 810.22 C13.75 810.13 12.32 810.21 10.82 810.58 C9.32 810.94 7.74 811.61 6.26 812.62 C4.78 813.63 3.4
							 815 2.33 816.67 C1.26 818.33 0.49 820.3 0.19 822.39 C0.04 823.44 -0 824.51 0.09 825.58 C0.18 826.66
							 0.38 827.72 0.71 828.76 C1.04 829.79 1.48 830.79 2.03 831.73 C2.59 832.66 3.25 833.53 3.99 834.32 C4.73
							 835.1 5.56 835.79 6.44 836.38 C6.66 836.53 6.88 836.66 7.11 836.8 L7.45 837 L7.81 837.19 L8.14 837.36
							 L8.5 837.52 C8.73 837.63 8.97 837.73 9.21 837.82 C10.19 838.21 11.2 838.48 12.2 838.64 C12.54 838.7
							 13.11 838.74 13.45 838.77 L13.45 841.89 L17.87 837.27" class="st10"/>
			</g>
			<g id="shape29-48" v:mID="29" v:groupContext="shape" transform="translate(5.18475,-8.7405)">
				<title>Sheet.29</title>
				<path d="M9.65 822.09 C4.17 822.09 0 826.53 0 832 C-0 836.54 3 840.37 7.22 841.55 L7.22 840.71 C7.22 840.33 7.48
							 839.98 7.84 839.83 C7.96 839.79 7.72 839.83 7.84 839.83 C8.09 839.83 8.4 839.86 8.58 840.04 L10.44 841.89
							 C15.55 841.49 19.59 837.21 19.59 832 C19.59 826.53 15.13 822.09 9.65 822.09 ZM2.26 832.84 C1.78 832.84
							 1.39 832.45 1.39 831.97 C1.39 831.49 1.78 831.1 2.26 831.1 C2.74 831.1 3.14 831.49 3.14 831.97 C3.14
							 832.45 2.74 832.84 2.26 832.84 ZM9.65 823.24 C10.14 823.24 10.53 823.63 10.53 824.12 C10.53 824.6 10.14
							 824.99 9.65 824.99 C9.17 824.99 8.78 824.6 8.78 824.12 C8.78 823.63 9.17 823.24 9.65 823.24 ZM14.84
							 837.03 L14.74 837.12 C14.11 837.75 13.1 837.75 12.47 837.12 L8.4 833.06 C8.04 832.71 8.23 832.23 8.27
							 831.77 L8.27 831.68 L8.27 828.02 C8.27 827.14 8.99 826.42 9.88 826.42 L10.15 826.42 C11.03 826.42 11.75
							 827.14 11.75 828.02 L11.75 831.21 L15.31 834.76 C15.94 835.39 15.46 836.4 14.84 837.03 ZM17.53 832.84
							 C17.05 832.84 16.66 832.45 16.66 831.97 C16.66 831.49 17.05 831.1 17.53 831.1 C18.01 831.1 18.4 831.49
							 18.4 831.97 C18.4 832.45 18.01 832.84 17.53 832.84 Z" class="st1"/>
			</g>
			<g id="shape27-50" v:mID="27" v:groupContext="groupContent">
				<v:textBlock v:margins="rect(0,0,0,0)" v:tabSpace="42.5197" v:verticalAlign="0"/>
				<v:textRect cx="12.3885" cy="847.292" width="51.01" height="10.8036"/>
				<text x="-12.21" y="849.99" class="st2" v:langID="2057"><v:paragraph v:horizAlign="1"/><v:tabList/>1 hour timer</text>			</g>
		</g>
		<g id="shape35-52" v:mID="35" v:groupContext="shape" v:layerMember="0" transform="translate(355.442,-760.069)">
			<title>Dynamic connector.35</title>
			<path d="M7.09 841.89 L7.09 921.9" class="st8"/>
		</g>
		<g id="shape36-57" v:mID="36" v:groupContext="shape" transform="translate(785.49,-650.811)">
			<title>Azure Functions (nc).36</title>
			<desc>UpdateHashflagState function</desc>
			<v:textBlock v:margins="rect(0,0,0,0)" v:tabSpace="42.5197"/>
			<v:textRect cx="22.6709" cy="855.357" width="84.47" height="29.25"/>
			<path d="M23.6 812.64 L13.94 812.64 L8.73 827.31 L15.08 827.36 L10.12 841.89 L23.8 822.51 L17.16 822.51 L23.6 812.64
						 ZM0.2 827.46 L1.74 829.2 L1.79 829.25 L8.73 835.89 C8.98 836.14 9.53 836.19 9.82 835.89 C10.12 835.59 10.12
						 835.05 9.82 834.75 L2.63 827.46 C2.34 827.17 2.34 826.62 2.63 826.32 L9.67 819.28 C10.07 818.99 9.97 818.44
						 9.67 818.14 C9.33 817.85 8.88 817.85 8.58 818.14 L1.74 824.79 L0.2 826.32 C-0.04 826.62 -0.09 827.17 0.2
						 827.46 ZM31.54 827.46 C31.83 827.17 31.79 826.62 31.54 826.32 L30 824.79 L23.16 818.14 C22.86 817.85 22.42
						 817.85 22.07 818.14 C21.77 818.44 21.67 818.99 22.07 819.28 L29.26 826.32 C29.55 826.62 29.55 827.17 29.26
						 827.46 L21.92 834.75 C21.62 835.05 21.62 835.59 21.92 835.89 C22.22 836.19 22.76 836.14 23.01 835.89 L29.8
						 829.15 L29.85 829.1 L31.54 827.46 Z" class="st1"/>
			<text x="-19.35" y="852.66" class="st2" v:langID="2057"><v:paragraph v:horizAlign="1"/><v:tabList/>UpdateHashflagState <tspan
						x="6.29" dy="1.2em" class="st3">function</tspan></text>		</g>
		<g id="group38-61" transform="translate(1006.87,-654.981)" v:mID="38" v:groupContext="group">
			<title>Storage queue (opaque)</title>
			<desc>save-hashflags queue</desc>
			<g id="shape39-62" v:mID="39" v:groupContext="shape" transform="translate(0,1662.87) scale(1,-1)">
				<title>Sheet.39</title>
				<path d="M18.1 841.89 L5.99 841.89 L0 831.43 L6.06 820.98 L18.1 820.98 L24.1 831.43 L18.1 841.89 Z" class="st11"/>
			</g>
			<g id="group40-64" v:mID="40" v:groupContext="group">
				<title>Sheet.40</title>
				<g id="shape41-65" v:mID="41" v:groupContext="shape" transform="translate(13.515,1671.86) scale(1,-1)">
					<title>Sheet.41</title>
					<path d="M5.23 841.89 L0 841.89 L2.61 839.85 L5.23 841.89 Z" class="st12"/>
				</g>
				<g id="shape42-67" v:mID="42" v:groupContext="shape" transform="translate(5.54625,1672.62) scale(1,-1)">
					<title>Sheet.42</title>
					<path d="M2.61 839.85 C2.55 839.85 2.49 839.85 2.42 839.91 L0 841.83 L0 838.7 L5.55 838.7 L5.55 841.89 L2.87
								 839.91 C2.8 839.85 2.68 839.85 2.61 839.85 Z" class="st12"/>
				</g>
				<g id="shape43-69" v:mID="43" v:groupContext="shape" transform="translate(13.3875,1672.62) scale(1,-1)">
					<title>Sheet.43</title>
					<path d="M2.74 839.85 C2.68 839.85 2.55 839.85 2.49 839.91 L0 841.83 L0 838.7 L5.55 838.7 L5.55 841.89 L2.93
								 839.91 C2.87 839.85 2.8 839.85 2.74 839.85 Z" class="st12"/>
				</g>
				<g id="shape44-71" v:mID="44" v:groupContext="shape" transform="translate(0,1662.87) scale(1,-1)">
					<title>Sheet.44</title>
					<path d="M18.1 841.89 L5.99 841.89 L0 831.43 L6.06 820.98 L18.1 820.98 L24.1 831.43 L18.1 841.89 ZM20.21 826.97
								 L3.7 826.97 C3.19 826.97 2.81 827.42 2.81 827.93 L2.81 834.24 C2.81 834.75 3.19 835.2 3.7 835.2
								 L20.21 835.2 C20.4 835.2 20.72 835.2 22.89 831.12 L22.95 830.92 L22.89 830.8 C20.72 826.97 20.4
								 826.97 20.21 826.97 Z" class="st12"/>
				</g>
				<g id="shape45-73" v:mID="45" v:groupContext="shape" transform="translate(5.4825,1671.86) scale(1,-1)">
					<title>Sheet.45</title>
					<path d="M5.29 841.89 L0 841.89 L2.61 839.85 L5.29 841.89 Z" class="st12"/>
				</g>
				<g id="shape46-75" v:mID="46" v:groupContext="shape" transform="translate(3.4425,1670.26) scale(1,-1)">
					<title>Sheet.46</title>
					<path d="M0.26 841.89 C0.13 841.89 0 841.76 0 841.63 L0 835.32 C0 835.2 0.13 835 0.26 835 L16.64 835 C16.96 835.32
								 17.91 836.85 18.74 838.32 C17.91 839.91 16.89 841.57 16.64 841.89 L0.26 841.89 ZM8.29 836.02 C8.29
								 835.83 8.1 835.64 7.84 835.64 L1.59 835.64 C1.4 835.64 1.34 835.83 1.34 836.02 L1.34 840.68 C1.34
								 840.87 1.4 840.93 1.59 840.93 L7.84 840.93 C8.03 840.93 8.29 840.87 8.29 840.68 L8.29 836.02 ZM16.13
								 836.02 C16.13 835.83 16 835.64 15.81 835.64 L9.63 835.64 C9.44 835.64 9.31 835.83 9.31 836.02 L9.31
								 840.68 C9.31 840.87 9.44 840.93 9.63 840.93 L15.81 840.93 C16 840.93 16.13 840.87 16.13 840.68 L16.13
								 836.02 Z" class="st12"/>
				</g>
			</g>
			<g id="shape38-77" v:mID="38" v:groupContext="groupContent">
				<v:textBlock v:margins="rect(0,0,0,0)" v:tabSpace="42.5197" v:verticalAlign="0"/>
				<v:textRect cx="12.0488" cy="858.949" width="72" height="30.9375"/>
				<text x="-17.1" y="851.58" class="st2" v:langID="2057"><v:paragraph v:horizAlign="1"/><v:tabList/>save-hashflags <tspan
							x="-0.4" dy="1.2em" class="st3">queue</tspan></text>			</g>
		</g>
		<g id="group48-80" transform="translate(1004.46,-272.722)" v:mID="48" v:groupContext="group">
			<title>Storage blob.48</title>
			<desc>hashflags blob store</desc>
			<g id="shape49-81" v:mID="49" v:groupContext="shape">
				<title>Sheet.49</title>
				<path d="M21.69 816.85 L7.23 816.85 L0 829.37 L7.23 841.89 L21.69 841.89 L28.92 829.37 L21.69 816.85 ZM21.73 834.96
							 C21.73 836.04 20.85 836.92 19.77 836.92 L9.15 836.92 C8.07 836.92 7.19 836.04 7.19 834.96 L7.19 823.77
							 C7.19 822.69 8.07 821.82 9.15 821.82 L17.03 821.82 C17.81 821.82 18.49 821.82 18.49 821.82 L18.71 821.82
							 L21.73 824.8 L21.73 826.39 L21.73 834.96 Z" class="st1"/>
			</g>
			<g id="shape50-83" v:mID="50" v:groupContext="shape" transform="translate(12.1013,-8.085)">
				<title>Sheet.50</title>
				<path d="M1.23 839.46 C1.21 839.35 1.18 839.25 1.15 839.17 C1.11 839.09 1.07 839.03 1.02 838.98 C0.98 838.94 0.92
							 838.9 0.86 838.88 C0.8 838.86 0.73 838.85 0.66 838.85 C0.53 838.85 0.42 838.88 0.33 838.95 C0.25 839.01
							 0.18 839.1 0.13 839.23 C0.08 839.35 0.05 839.51 0.03 839.7 C0.01 839.88 0 840.1 0 840.35 C0 840.65 0.01
							 840.9 0.04 841.1 C0.06 841.3 0.1 841.45 0.15 841.57 C0.2 841.69 0.27 841.77 0.35 841.82 C0.43 841.87
							 0.53 841.89 0.64 841.89 C0.73 841.89 0.8 841.88 0.87 841.85 C0.93 841.82 0.99 841.78 1.04 841.73 C1.09
							 841.67 1.13 841.6 1.16 841.52 C1.2 841.44 1.22 841.34 1.24 841.23 C1.26 841.12 1.28 841 1.29 840.86
							 C1.29 840.72 1.3 840.57 1.3 840.4 C1.3 840.2 1.29 840.02 1.28 839.86 C1.27 839.71 1.26 839.58 1.23 839.46
							 Z" class="st1"/>
			</g>
			<g id="shape51-85" v:mID="51" v:groupContext="shape" transform="translate(15.5167,-13.9237)">
				<title>Sheet.51</title>
				<path d="M1.23 839.46 C1.21 839.35 1.18 839.25 1.15 839.17 C1.11 839.09 1.07 839.03 1.02 838.98 C0.98 838.94 0.92
							 838.9 0.86 838.88 C0.8 838.86 0.73 838.85 0.65 838.85 C0.53 838.85 0.42 838.88 0.33 838.95 C0.25 839.01
							 0.18 839.1 0.13 839.23 C0.08 839.35 0.05 839.51 0.03 839.7 C0.01 839.88 0 840.1 0 840.35 C0 840.65 0.01
							 840.9 0.04 841.1 C0.06 841.3 0.1 841.45 0.15 841.57 C0.2 841.69 0.27 841.77 0.35 841.82 C0.43 841.87
							 0.53 841.89 0.64 841.89 C0.73 841.89 0.8 841.88 0.87 841.85 C0.93 841.82 0.99 841.78 1.04 841.73 C1.09
							 841.67 1.13 841.6 1.16 841.52 C1.2 841.44 1.22 841.34 1.24 841.23 C1.26 841.12 1.28 841 1.29 840.86
							 C1.29 840.72 1.3 840.57 1.3 840.4 C1.3 840.2 1.29 840.02 1.28 839.86 C1.27 839.71 1.25 839.58 1.23 839.46
							 Z" class="st1"/>
			</g>
			<g id="shape52-87" v:mID="52" v:groupContext="shape" transform="translate(8.2605,-6.04125)">
				<title>Sheet.52</title>
				<path d="M9.98 828.94 C9.71 828.93 9.26 828.93 8.76 828.93 L0.88 828.93 C0.39 828.93 0 829.33 0 829.81 L0 841.01
							 C0 841.5 0.39 841.89 0.88 841.89 L11.51 841.89 C11.99 841.89 12.4 841.49 12.4 841.01 L12.4 831.39 L9.98
							 831.39 L9.98 828.94 L9.98 828.94 ZM3.27 831.16 C3.27 831.13 3.28 831.1 3.29 831.08 C3.3 831.05 3.31
							 831.03 3.32 831.02 C3.34 831 3.36 830.98 3.39 830.97 L4.3 830.37 C4.31 830.37 4.33 830.36 4.34 830.35
							 C4.36 830.35 4.38 830.34 4.41 830.34 C4.43 830.34 4.47 830.33 4.51 830.33 C4.55 830.33 4.61 830.33 4.68
							 830.33 C4.76 830.33 4.83 830.33 4.88 830.34 C4.93 830.34 4.97 830.35 5 830.35 C5.02 830.36 5.04 830.37
							 5.05 830.38 C5.06 830.4 5.06 830.41 5.06 830.43 L5.06 833.95 L5.76 833.95 C5.78 833.95 5.79 833.96 5.81
							 833.97 C5.83 833.98 5.84 834 5.85 834.03 C5.87 834.05 5.87 834.09 5.88 834.13 C5.88 834.17 5.89 834.23
							 5.89 834.29 C5.89 834.35 5.88 834.4 5.88 834.45 C5.87 834.49 5.86 834.52 5.85 834.55 C5.84 834.57 5.82
							 834.59 5.81 834.6 C5.79 834.61 5.78 834.62 5.76 834.62 L3.41 834.62 C3.39 834.62 3.37 834.61 3.36 834.6
							 C3.34 834.59 3.33 834.57 3.32 834.55 C3.3 834.52 3.29 834.49 3.29 834.45 C3.28 834.4 3.28 834.35 3.28
							 834.29 C3.28 834.23 3.28 834.17 3.29 834.13 C3.29 834.09 3.3 834.05 3.31 834.03 C3.33 834 3.34 833.98
							 3.35 833.97 C3.37 833.96 3.39 833.95 3.41 833.95 L4.2 833.95 L4.2 831.18 L3.52 831.56 C3.47 831.58 3.42
							 831.6 3.39 831.6 C3.36 831.61 3.34 831.6 3.32 831.58 C3.3 831.57 3.29 831.53 3.28 831.49 C3.27 831.44
							 3.27 831.38 3.27 831.29 C3.27 831.24 3.27 831.2 3.27 831.16 ZM5.93 839.23 C5.88 839.51 5.79 839.74 5.66
							 839.93 C5.54 840.13 5.38 840.28 5.18 840.38 C4.98 840.48 4.74 840.53 4.45 840.53 C4.16 840.53 3.92 840.48
							 3.73 840.38 C3.54 840.28 3.38 840.14 3.27 839.95 C3.16 839.76 3.08 839.53 3.04 839.26 C2.99 838.99 2.97
							 838.69 2.97 838.34 C2.97 838.01 3 837.7 3.05 837.43 C3.11 837.15 3.2 836.92 3.32 836.72 C3.45 836.53
							 3.61 836.38 3.81 836.28 C4.01 836.18 4.25 836.12 4.53 836.12 C4.82 836.12 5.07 836.17 5.26 836.27 C5.45
							 836.37 5.6 836.52 5.71 836.71 C5.83 836.89 5.9 837.12 5.95 837.39 C5.99 837.66 6.01 837.97 6.01 838.31
							 C6.01 838.65 5.99 838.96 5.93 839.23 ZM9.29 840.28 C9.29 840.33 9.28 840.36 9.26 840.39 C9.25 840.41
							 9.24 840.43 9.22 840.44 C9.21 840.45 9.19 840.46 9.17 840.46 L6.82 840.46 C6.8 840.46 6.79 840.45 6.77
							 840.44 C6.76 840.43 6.74 840.41 6.73 840.39 C6.72 840.36 6.71 840.33 6.7 840.28 C6.7 840.24 6.69 840.19
							 6.69 840.13 C6.69 840.07 6.7 840.01 6.7 839.97 C6.71 839.93 6.72 839.89 6.73 839.87 C6.74 839.84 6.75
							 839.82 6.77 839.81 C6.78 839.8 6.8 839.79 6.82 839.79 L7.61 839.79 L7.61 837.02 L6.93 837.4 C6.88 837.42
							 6.84 837.44 6.81 837.44 C6.78 837.45 6.75 837.44 6.73 837.42 C6.71 837.4 6.7 837.37 6.69 837.33 C6.69
							 837.28 6.68 837.22 6.68 837.13 C6.68 837.08 6.69 837.04 6.69 837 C6.69 836.97 6.7 836.94 6.7 836.92
							 C6.71 836.89 6.73 836.87 6.74 836.86 C6.76 836.84 6.78 836.82 6.8 836.81 L7.72 836.21 C7.73 836.2 7.74
							 836.2 7.76 836.19 C7.77 836.19 7.8 836.18 7.82 836.18 C7.85 836.18 7.88 836.17 7.93 836.17 C7.97 836.17
							 8.02 836.17 8.09 836.17 C8.18 836.17 8.24 836.17 8.3 836.18 C8.35 836.18 8.39 836.19 8.41 836.19 C8.44
							 836.2 8.46 836.21 8.46 836.22 C8.47 836.24 8.48 836.25 8.48 836.27 L8.48 839.79 L9.17 839.79 C9.19 839.79
							 9.21 839.8 9.23 839.81 C9.24 839.82 9.26 839.84 9.27 839.87 C9.28 839.89 9.29 839.93 9.3 839.97 C9.3
							 840.01 9.3 840.07 9.3 840.13 C9.3 840.19 9.3 840.24 9.29 840.28 ZM9.35 833.39 C9.29 833.67 9.2 833.9
							 9.08 834.1 C8.95 834.29 8.79 834.44 8.59 834.54 C8.39 834.64 8.15 834.69 7.87 834.69 C7.57 834.69 7.33
							 834.64 7.14 834.54 C6.95 834.44 6.8 834.3 6.69 834.11 C6.58 833.92 6.5 833.7 6.45 833.42 C6.41 833.15
							 6.38 832.85 6.38 832.51 C6.38 832.17 6.41 831.86 6.47 831.59 C6.52 831.31 6.61 831.08 6.74 830.88 C6.86
							 830.69 7.02 830.54 7.22 830.44 C7.42 830.34 7.66 830.29 7.95 830.29 C8.24 830.29 8.48 830.34 8.67 830.44
							 C8.87 830.53 9.02 830.68 9.13 830.87 C9.24 831.05 9.32 831.28 9.36 831.55 C9.41 831.82 9.43 832.13 9.43
							 832.47 C9.43 832.81 9.4 833.12 9.35 833.39 Z" class="st1"/>
			</g>
			<g id="shape48-89" v:mID="48" v:groupContext="groupContent">
				<v:textBlock v:margins="rect(0,0,0,0)" v:tabSpace="42.5197" v:verticalAlign="0"/>
				<v:textRect cx="14.46" cy="847.292" width="82.04" height="10.8036"/>
				<text x="-25.65" y="849.99" class="st2" v:langID="2057"><v:paragraph v:horizAlign="1"/><v:tabList/>hashflags blob store</text>			</g>
		</g>
		<g id="group53-91" transform="translate(789.312,-465.919)" v:mID="53" v:groupContext="group">
			<title>Storage queue (opaque).53</title>
			<desc>create-hero queue</desc>
			<g id="shape54-92" v:mID="54" v:groupContext="shape" transform="translate(0,1662.87) scale(1,-1)">
				<title>Sheet.54</title>
				<path d="M18.1 841.89 L5.99 841.89 L0 831.43 L6.06 820.98 L18.1 820.98 L24.1 831.43 L18.1 841.89 Z" class="st11"/>
			</g>
			<g id="group55-94" v:mID="55" v:groupContext="group">
				<title>Sheet.55</title>
				<g id="shape56-95" v:mID="56" v:groupContext="shape" transform="translate(13.515,1671.86) scale(1,-1)">
					<title>Sheet.56</title>
					<path d="M5.23 841.89 L0 841.89 L2.61 839.85 L5.23 841.89 Z" class="st12"/>
				</g>
				<g id="shape57-97" v:mID="57" v:groupContext="shape" transform="translate(5.54625,1672.62) scale(1,-1)">
					<title>Sheet.57</title>
					<path d="M2.61 839.85 C2.55 839.85 2.49 839.85 2.42 839.91 L0 841.83 L0 838.7 L5.55 838.7 L5.55 841.89 L2.87
								 839.91 C2.8 839.85 2.68 839.85 2.61 839.85 Z" class="st12"/>
				</g>
				<g id="shape58-99" v:mID="58" v:groupContext="shape" transform="translate(13.3875,1672.62) scale(1,-1)">
					<title>Sheet.58</title>
					<path d="M2.74 839.85 C2.68 839.85 2.55 839.85 2.49 839.91 L0 841.83 L0 838.7 L5.55 838.7 L5.55 841.89 L2.93
								 839.91 C2.87 839.85 2.8 839.85 2.74 839.85 Z" class="st12"/>
				</g>
				<g id="shape59-101" v:mID="59" v:groupContext="shape" transform="translate(0,1662.87) scale(1,-1)">
					<title>Sheet.59</title>
					<path d="M18.1 841.89 L5.99 841.89 L0 831.43 L6.06 820.98 L18.1 820.98 L24.1 831.43 L18.1 841.89 ZM20.21 826.97
								 L3.7 826.97 C3.19 826.97 2.81 827.42 2.81 827.93 L2.81 834.24 C2.81 834.75 3.19 835.2 3.7 835.2
								 L20.21 835.2 C20.4 835.2 20.72 835.2 22.89 831.12 L22.95 830.92 L22.89 830.8 C20.72 826.97 20.4
								 826.97 20.21 826.97 Z" class="st12"/>
				</g>
				<g id="shape60-103" v:mID="60" v:groupContext="shape" transform="translate(5.4825,1671.86) scale(1,-1)">
					<title>Sheet.60</title>
					<path d="M5.29 841.89 L0 841.89 L2.61 839.85 L5.29 841.89 Z" class="st12"/>
				</g>
				<g id="shape61-105" v:mID="61" v:groupContext="shape" transform="translate(3.4425,1670.26) scale(1,-1)">
					<title>Sheet.61</title>
					<path d="M0.26 841.89 C0.13 841.89 0 841.76 0 841.63 L0 835.32 C0 835.2 0.13 835 0.26 835 L16.64 835 C16.96 835.32
								 17.91 836.85 18.74 838.32 C17.91 839.91 16.89 841.57 16.64 841.89 L0.26 841.89 ZM8.29 836.02 C8.29
								 835.83 8.1 835.64 7.84 835.64 L1.59 835.64 C1.4 835.64 1.34 835.83 1.34 836.02 L1.34 840.68 C1.34
								 840.87 1.4 840.93 1.59 840.93 L7.84 840.93 C8.03 840.93 8.29 840.87 8.29 840.68 L8.29 836.02 ZM16.13
								 836.02 C16.13 835.83 16 835.64 15.81 835.64 L9.63 835.64 C9.44 835.64 9.31 835.83 9.31 836.02 L9.31
								 840.68 C9.31 840.87 9.44 840.93 9.63 840.93 L15.81 840.93 C16 840.93 16.13 840.87 16.13 840.68 L16.13
								 836.02 Z" class="st12"/>
				</g>
			</g>
			<g id="shape53-107" v:mID="53" v:groupContext="groupContent">
				<v:textBlock v:margins="rect(0,0,0,0)" v:tabSpace="42.5197" v:verticalAlign="0"/>
				<v:textRect cx="12.0488" cy="858.949" width="72" height="30.9375"/>
				<text x="-11.02" y="851.58" class="st2" v:langID="2057"><v:paragraph v:horizAlign="1"/><v:tabList/>create-hero <tspan
							x="-0.4" dy="1.2em" class="st3">queue</tspan></text>			</g>
		</g>
		<g id="shape62-110" v:mID="62" v:groupContext="shape" transform="translate(567.929,-461.749)">
			<title>Azure Functions (nc).62</title>
			<desc>CreateHeroImage function</desc>
			<v:userDefs>
				<v:ud v:nameU="visAltText" v:val="VT4()"/>
			</v:userDefs>
			<v:textBlock v:margins="rect(0,0,0,0)" v:tabSpace="42.5197"/>
			<v:textRect cx="13.95" cy="855.765" width="75.26" height="29.25"/>
			<path d="M23.6 812.64 L13.94 812.64 L8.73 827.31 L15.08 827.36 L10.12 841.89 L23.8 822.51 L17.16 822.51 L23.6 812.64
						 ZM0.2 827.46 L1.74 829.2 L1.79 829.25 L8.73 835.89 C8.98 836.14 9.53 836.19 9.82 835.89 C10.12 835.59 10.12
						 835.05 9.82 834.75 L2.63 827.46 C2.34 827.17 2.34 826.62 2.63 826.32 L9.67 819.28 C10.07 818.99 9.97 818.44
						 9.67 818.14 C9.33 817.85 8.88 817.85 8.58 818.14 L1.74 824.79 L0.2 826.32 C-0.04 826.62 -0.09 827.17 0.2
						 827.46 ZM31.54 827.46 C31.83 827.17 31.79 826.62 31.54 826.32 L30 824.79 L23.16 818.14 C22.86 817.85 22.42
						 817.85 22.07 818.14 C21.77 818.44 21.67 818.99 22.07 819.28 L29.26 826.32 C29.55 826.62 29.55 827.17 29.26
						 827.46 L21.92 834.75 C21.62 835.05 21.62 835.59 21.92 835.89 C22.22 836.19 22.76 836.14 23.01 835.89 L29.8
						 829.15 L29.85 829.1 L31.54 827.46 Z" class="st1"/>
			<text x="-21.04" y="853.06" class="st2" v:langID="2057"><v:paragraph v:horizAlign="1"/><v:tabList/>CreateHeroImage <tspan
						x="-2.43" dy="1.2em" class="st3">function</tspan></text>		</g>
		<g id="group63-114" transform="translate(569.34,-274.789)" v:mID="63" v:groupContext="group">
			<title>Storage blob.63</title>
			<desc>heroimages blob store</desc>
			<g id="shape64-115" v:mID="64" v:groupContext="shape">
				<title>Sheet.64</title>
				<path d="M21.69 816.85 L7.23 816.85 L0 829.37 L7.23 841.89 L21.69 841.89 L28.92 829.37 L21.69 816.85 ZM21.73 834.96
							 C21.73 836.04 20.85 836.92 19.77 836.92 L9.15 836.92 C8.07 836.92 7.19 836.04 7.19 834.96 L7.19 823.77
							 C7.19 822.69 8.07 821.82 9.15 821.82 L17.03 821.82 C17.81 821.82 18.49 821.82 18.49 821.82 L18.71 821.82
							 L21.73 824.8 L21.73 826.39 L21.73 834.96 Z" class="st1"/>
			</g>
			<g id="shape65-117" v:mID="65" v:groupContext="shape" transform="translate(12.1013,-8.085)">
				<title>Sheet.65</title>
				<path d="M1.23 839.46 C1.21 839.35 1.18 839.25 1.15 839.17 C1.11 839.09 1.07 839.03 1.02 838.98 C0.98 838.94 0.92
							 838.9 0.86 838.88 C0.8 838.86 0.73 838.85 0.66 838.85 C0.53 838.85 0.42 838.88 0.33 838.95 C0.25 839.01
							 0.18 839.1 0.13 839.23 C0.08 839.35 0.05 839.51 0.03 839.7 C0.01 839.88 0 840.1 0 840.35 C0 840.65 0.01
							 840.9 0.04 841.1 C0.06 841.3 0.1 841.45 0.15 841.57 C0.2 841.69 0.27 841.77 0.35 841.82 C0.43 841.87
							 0.53 841.89 0.64 841.89 C0.73 841.89 0.8 841.88 0.87 841.85 C0.93 841.82 0.99 841.78 1.04 841.73 C1.09
							 841.67 1.13 841.6 1.16 841.52 C1.2 841.44 1.22 841.34 1.24 841.23 C1.26 841.12 1.28 841 1.29 840.86
							 C1.29 840.72 1.3 840.57 1.3 840.4 C1.3 840.2 1.29 840.02 1.28 839.86 C1.27 839.71 1.26 839.58 1.23 839.46
							 Z" class="st1"/>
			</g>
			<g id="shape66-119" v:mID="66" v:groupContext="shape" transform="translate(15.5167,-13.9237)">
				<title>Sheet.66</title>
				<path d="M1.23 839.46 C1.21 839.35 1.18 839.25 1.15 839.17 C1.11 839.09 1.07 839.03 1.02 838.98 C0.98 838.94 0.92
							 838.9 0.86 838.88 C0.8 838.86 0.73 838.85 0.65 838.85 C0.53 838.85 0.42 838.88 0.33 838.95 C0.25 839.01
							 0.18 839.1 0.13 839.23 C0.08 839.35 0.05 839.51 0.03 839.7 C0.01 839.88 0 840.1 0 840.35 C0 840.65 0.01
							 840.9 0.04 841.1 C0.06 841.3 0.1 841.45 0.15 841.57 C0.2 841.69 0.27 841.77 0.35 841.82 C0.43 841.87
							 0.53 841.89 0.64 841.89 C0.73 841.89 0.8 841.88 0.87 841.85 C0.93 841.82 0.99 841.78 1.04 841.73 C1.09
							 841.67 1.13 841.6 1.16 841.52 C1.2 841.44 1.22 841.34 1.24 841.23 C1.26 841.12 1.28 841 1.29 840.86
							 C1.29 840.72 1.3 840.57 1.3 840.4 C1.3 840.2 1.29 840.02 1.28 839.86 C1.27 839.71 1.25 839.58 1.23 839.46
							 Z" class="st1"/>
			</g>
			<g id="shape67-121" v:mID="67" v:groupContext="shape" transform="translate(8.2605,-6.04125)">
				<title>Sheet.67</title>
				<path d="M9.98 828.94 C9.71 828.93 9.26 828.93 8.76 828.93 L0.88 828.93 C0.39 828.93 0 829.33 0 829.81 L0 841.01
							 C0 841.5 0.39 841.89 0.88 841.89 L11.51 841.89 C11.99 841.89 12.4 841.49 12.4 841.01 L12.4 831.39 L9.98
							 831.39 L9.98 828.94 L9.98 828.94 ZM3.27 831.16 C3.27 831.13 3.28 831.1 3.29 831.08 C3.3 831.05 3.31
							 831.03 3.32 831.02 C3.34 831 3.36 830.98 3.39 830.97 L4.3 830.37 C4.31 830.37 4.33 830.36 4.34 830.35
							 C4.36 830.35 4.38 830.34 4.41 830.34 C4.43 830.34 4.47 830.33 4.51 830.33 C4.55 830.33 4.61 830.33 4.68
							 830.33 C4.76 830.33 4.83 830.33 4.88 830.34 C4.93 830.34 4.97 830.35 5 830.35 C5.02 830.36 5.04 830.37
							 5.05 830.38 C5.06 830.4 5.06 830.41 5.06 830.43 L5.06 833.95 L5.76 833.95 C5.78 833.95 5.79 833.96 5.81
							 833.97 C5.83 833.98 5.84 834 5.85 834.03 C5.87 834.05 5.87 834.09 5.88 834.13 C5.88 834.17 5.89 834.23
							 5.89 834.29 C5.89 834.35 5.88 834.4 5.88 834.45 C5.87 834.49 5.86 834.52 5.85 834.55 C5.84 834.57 5.82
							 834.59 5.81 834.6 C5.79 834.61 5.78 834.62 5.76 834.62 L3.41 834.62 C3.39 834.62 3.37 834.61 3.36 834.6
							 C3.34 834.59 3.33 834.57 3.32 834.55 C3.3 834.52 3.29 834.49 3.29 834.45 C3.28 834.4 3.28 834.35 3.28
							 834.29 C3.28 834.23 3.28 834.17 3.29 834.13 C3.29 834.09 3.3 834.05 3.31 834.03 C3.33 834 3.34 833.98
							 3.35 833.97 C3.37 833.96 3.39 833.95 3.41 833.95 L4.2 833.95 L4.2 831.18 L3.52 831.56 C3.47 831.58 3.42
							 831.6 3.39 831.6 C3.36 831.61 3.34 831.6 3.32 831.58 C3.3 831.57 3.29 831.53 3.28 831.49 C3.27 831.44
							 3.27 831.38 3.27 831.29 C3.27 831.24 3.27 831.2 3.27 831.16 ZM5.93 839.23 C5.88 839.51 5.79 839.74 5.66
							 839.93 C5.54 840.13 5.38 840.28 5.18 840.38 C4.98 840.48 4.74 840.53 4.45 840.53 C4.16 840.53 3.92 840.48
							 3.73 840.38 C3.54 840.28 3.38 840.14 3.27 839.95 C3.16 839.76 3.08 839.53 3.04 839.26 C2.99 838.99 2.97
							 838.69 2.97 838.34 C2.97 838.01 3 837.7 3.05 837.43 C3.11 837.15 3.2 836.92 3.32 836.72 C3.45 836.53
							 3.61 836.38 3.81 836.28 C4.01 836.18 4.25 836.12 4.53 836.12 C4.82 836.12 5.07 836.17 5.26 836.27 C5.45
							 836.37 5.6 836.52 5.71 836.71 C5.83 836.89 5.9 837.12 5.95 837.39 C5.99 837.66 6.01 837.97 6.01 838.31
							 C6.01 838.65 5.99 838.96 5.93 839.23 ZM9.29 840.28 C9.29 840.33 9.28 840.36 9.26 840.39 C9.25 840.41
							 9.24 840.43 9.22 840.44 C9.21 840.45 9.19 840.46 9.17 840.46 L6.82 840.46 C6.8 840.46 6.79 840.45 6.77
							 840.44 C6.76 840.43 6.74 840.41 6.73 840.39 C6.72 840.36 6.71 840.33 6.7 840.28 C6.7 840.24 6.69 840.19
							 6.69 840.13 C6.69 840.07 6.7 840.01 6.7 839.97 C6.71 839.93 6.72 839.89 6.73 839.87 C6.74 839.84 6.75
							 839.82 6.77 839.81 C6.78 839.8 6.8 839.79 6.82 839.79 L7.61 839.79 L7.61 837.02 L6.93 837.4 C6.88 837.42
							 6.84 837.44 6.81 837.44 C6.78 837.45 6.75 837.44 6.73 837.42 C6.71 837.4 6.7 837.37 6.69 837.33 C6.69
							 837.28 6.68 837.22 6.68 837.13 C6.68 837.08 6.69 837.04 6.69 837 C6.69 836.97 6.7 836.94 6.7 836.92
							 C6.71 836.89 6.73 836.87 6.74 836.86 C6.76 836.84 6.78 836.82 6.8 836.81 L7.72 836.21 C7.73 836.2 7.74
							 836.2 7.76 836.19 C7.77 836.19 7.8 836.18 7.82 836.18 C7.85 836.18 7.88 836.17 7.93 836.17 C7.97 836.17
							 8.02 836.17 8.09 836.17 C8.18 836.17 8.24 836.17 8.3 836.18 C8.35 836.18 8.39 836.19 8.41 836.19 C8.44
							 836.2 8.46 836.21 8.46 836.22 C8.47 836.24 8.48 836.25 8.48 836.27 L8.48 839.79 L9.17 839.79 C9.19 839.79
							 9.21 839.8 9.23 839.81 C9.24 839.82 9.26 839.84 9.27 839.87 C9.28 839.89 9.29 839.93 9.3 839.97 C9.3
							 840.01 9.3 840.07 9.3 840.13 C9.3 840.19 9.3 840.24 9.29 840.28 ZM9.35 833.39 C9.29 833.67 9.2 833.9
							 9.08 834.1 C8.95 834.29 8.79 834.44 8.59 834.54 C8.39 834.64 8.15 834.69 7.87 834.69 C7.57 834.69 7.33
							 834.64 7.14 834.54 C6.95 834.44 6.8 834.3 6.69 834.11 C6.58 833.92 6.5 833.7 6.45 833.42 C6.41 833.15
							 6.38 832.85 6.38 832.51 C6.38 832.17 6.41 831.86 6.47 831.59 C6.52 831.31 6.61 831.08 6.74 830.88 C6.86
							 830.69 7.02 830.54 7.22 830.44 C7.42 830.34 7.66 830.29 7.95 830.29 C8.24 830.29 8.48 830.34 8.67 830.44
							 C8.87 830.53 9.02 830.68 9.13 830.87 C9.24 831.05 9.32 831.28 9.36 831.55 C9.41 831.82 9.43 832.13 9.43
							 832.47 C9.43 832.81 9.4 833.12 9.35 833.39 Z" class="st1"/>
			</g>
			<g id="shape63-123" v:mID="63" v:groupContext="groupContent">
				<v:textBlock v:margins="rect(0,0,0,0)" v:tabSpace="42.5197" v:verticalAlign="0"/>
				<v:textRect cx="14.46" cy="847.292" width="91.3" height="10.8036"/>
				<text x="-30.28" y="849.99" class="st2" v:langID="2057"><v:paragraph v:horizAlign="1"/><v:tabList/>heroimages blob store</text>			</g>
		</g>
		<g id="group68-125" transform="translate(354.191,-465.919)" v:mID="68" v:groupContext="group">
			<title>Storage queue (opaque).68</title>
			<desc>tweet queue</desc>
			<g id="shape69-126" v:mID="69" v:groupContext="shape" transform="translate(0,1662.87) scale(1,-1)">
				<title>Sheet.69</title>
				<path d="M18.1 841.89 L5.99 841.89 L0 831.43 L6.06 820.98 L18.1 820.98 L24.1 831.43 L18.1 841.89 Z" class="st11"/>
			</g>
			<g id="group70-128" v:mID="70" v:groupContext="group">
				<title>Sheet.70</title>
				<g id="shape71-129" v:mID="71" v:groupContext="shape" transform="translate(13.515,1671.86) scale(1,-1)">
					<title>Sheet.71</title>
					<path d="M5.23 841.89 L0 841.89 L2.61 839.85 L5.23 841.89 Z" class="st12"/>
				</g>
				<g id="shape72-131" v:mID="72" v:groupContext="shape" transform="translate(5.54625,1672.62) scale(1,-1)">
					<title>Sheet.72</title>
					<path d="M2.61 839.85 C2.55 839.85 2.49 839.85 2.42 839.91 L0 841.83 L0 838.7 L5.55 838.7 L5.55 841.89 L2.87
								 839.91 C2.8 839.85 2.68 839.85 2.61 839.85 Z" class="st12"/>
				</g>
				<g id="shape73-133" v:mID="73" v:groupContext="shape" transform="translate(13.3875,1672.62) scale(1,-1)">
					<title>Sheet.73</title>
					<path d="M2.74 839.85 C2.68 839.85 2.55 839.85 2.49 839.91 L0 841.83 L0 838.7 L5.55 838.7 L5.55 841.89 L2.93
								 839.91 C2.87 839.85 2.8 839.85 2.74 839.85 Z" class="st12"/>
				</g>
				<g id="shape74-135" v:mID="74" v:groupContext="shape" transform="translate(0,1662.87) scale(1,-1)">
					<title>Sheet.74</title>
					<path d="M18.1 841.89 L5.99 841.89 L0 831.43 L6.06 820.98 L18.1 820.98 L24.1 831.43 L18.1 841.89 ZM20.21 826.97
								 L3.7 826.97 C3.19 826.97 2.81 827.42 2.81 827.93 L2.81 834.24 C2.81 834.75 3.19 835.2 3.7 835.2
								 L20.21 835.2 C20.4 835.2 20.72 835.2 22.89 831.12 L22.95 830.92 L22.89 830.8 C20.72 826.97 20.4
								 826.97 20.21 826.97 Z" class="st12"/>
				</g>
				<g id="shape75-137" v:mID="75" v:groupContext="shape" transform="translate(5.4825,1671.86) scale(1,-1)">
					<title>Sheet.75</title>
					<path d="M5.29 841.89 L0 841.89 L2.61 839.85 L5.29 841.89 Z" class="st12"/>
				</g>
				<g id="shape76-139" v:mID="76" v:groupContext="shape" transform="translate(3.4425,1670.26) scale(1,-1)">
					<title>Sheet.76</title>
					<path d="M0.26 841.89 C0.13 841.89 0 841.76 0 841.63 L0 835.32 C0 835.2 0.13 835 0.26 835 L16.64 835 C16.96 835.32
								 17.91 836.85 18.74 838.32 C17.91 839.91 16.89 841.57 16.64 841.89 L0.26 841.89 ZM8.29 836.02 C8.29
								 835.83 8.1 835.64 7.84 835.64 L1.59 835.64 C1.4 835.64 1.34 835.83 1.34 836.02 L1.34 840.68 C1.34
								 840.87 1.4 840.93 1.59 840.93 L7.84 840.93 C8.03 840.93 8.29 840.87 8.29 840.68 L8.29 836.02 ZM16.13
								 836.02 C16.13 835.83 16 835.64 15.81 835.64 L9.63 835.64 C9.44 835.64 9.31 835.83 9.31 836.02 L9.31
								 840.68 C9.31 840.87 9.44 840.93 9.63 840.93 L15.81 840.93 C16 840.93 16.13 840.87 16.13 840.68 L16.13
								 836.02 Z" class="st12"/>
				</g>
			</g>
			<g id="shape68-141" v:mID="68" v:groupContext="groupContent">
				<v:textBlock v:margins="rect(0,0,0,0)" v:tabSpace="42.5197" v:verticalAlign="0"/>
				<v:textRect cx="12.0488" cy="858.949" width="72" height="30.9375"/>
				<text x="-12.64" y="851.58" class="st2" v:langID="2057"><v:paragraph v:horizAlign="1"/><v:tabList/>tweet queue</text>			</g>
		</g>
		<g id="shape86-143" v:mID="86" v:groupContext="shape" transform="translate(123.823,-461.749)">
			<title>Azure Functions (nc).86</title>
			<desc>TweetHashflag function</desc>
			<v:textBlock v:margins="rect(0,0,0,0)" v:tabSpace="42.5197"/>
			<v:textRect cx="13.1766" cy="855.357" width="65.48" height="29.25"/>
			<path d="M23.6 812.64 L13.94 812.64 L8.73 827.31 L15.08 827.36 L10.12 841.89 L23.8 822.51 L17.16 822.51 L23.6 812.64
						 ZM0.2 827.46 L1.74 829.2 L1.79 829.25 L8.73 835.89 C8.98 836.14 9.53 836.19 9.82 835.89 C10.12 835.59 10.12
						 835.05 9.82 834.75 L2.63 827.46 C2.34 827.17 2.34 826.62 2.63 826.32 L9.67 819.28 C10.07 818.99 9.97 818.44
						 9.67 818.14 C9.33 817.85 8.88 817.85 8.58 818.14 L1.74 824.79 L0.2 826.32 C-0.04 826.62 -0.09 827.17 0.2
						 827.46 ZM31.54 827.46 C31.83 827.17 31.79 826.62 31.54 826.32 L30 824.79 L23.16 818.14 C22.86 817.85 22.42
						 817.85 22.07 818.14 C21.77 818.44 21.67 818.99 22.07 819.28 L29.26 826.32 C29.55 826.62 29.55 827.17 29.26
						 827.46 L21.92 834.75 C21.62 835.05 21.62 835.59 21.92 835.89 C22.22 836.19 22.76 836.14 23.01 835.89 L29.8
						 829.15 L29.85 829.1 L31.54 827.46 Z" class="st1"/>
			<text x="-16.04" y="852.66" class="st2" v:langID="2057"><v:paragraph v:horizAlign="1"/><v:tabList/>TweetHashflag <tspan
						x="-3.2" dy="1.2em" class="st3">function</tspan></text>		</g>
		<g id="group87-147" transform="translate(127.305,-271.433)" v:mID="87" v:groupContext="group">
			<title>Scheduler.87</title>
			<desc>1 minute timer</desc>
			<g id="shape88-148" v:mID="88" v:groupContext="shape">
				<title>Sheet.88</title>
				<path d="M13.45 832.64 L13.45 833.79 L13.45 835.59 C13.27 835.57 12.36 835.44 12.2 835.4 C11.59 835.26 10.99 835.08
							 10.4 834.84 C10.21 834.77 10.02 834.69 9.83 834.6 L9.56 834.47 L9.27 834.33 L9.01 834.19 L8.74 834.04
							 C8.56 833.93 8.39 833.83 8.21 833.71 C7.51 833.26 6.87 832.72 6.26 832.12 C5.66 831.53 5.13 830.85 4.67
							 830.13 C4.19 829.4 3.8 828.62 3.5 827.81 C2.89 826.18 2.62 824.41 2.74 822.67 C2.86 820.94 3.37 819.25
							 4.18 817.76 C4.98 816.27 6.07 815 7.3 814.02 C7.92 813.53 8.56 813.11 9.22 812.76 C9.88 812.41 10.55
							 812.13 11.2 811.9 C12.53 811.46 13.82 811.26 14.97 811.23 C16.12 811.19 17.13 811.31 17.95 811.47 C18.77
							 811.62 19.4 811.83 19.83 811.97 C20.05 812.05 20.21 812.11 20.32 812.16 L20.48 812.22 L20.49 812.22
							 C20.56 812.25 20.64 812.22 20.68 812.15 C20.72 812.08 20.7 811.98 20.62 811.94 L20.46 811.85 C20.36
							 811.79 20.2 811.71 19.99 811.6 C19.57 811.39 18.95 811.1 18.11 810.83 C17.28 810.55 16.22 810.31 14.99
							 810.22 C13.75 810.13 12.32 810.21 10.82 810.58 C9.32 810.94 7.74 811.61 6.26 812.62 C4.78 813.63 3.4
							 815 2.33 816.67 C1.26 818.33 0.49 820.3 0.19 822.39 C0.04 823.44 -0 824.51 0.09 825.58 C0.18 826.66
							 0.38 827.72 0.71 828.76 C1.04 829.79 1.48 830.79 2.03 831.73 C2.59 832.66 3.25 833.53 3.99 834.32 C4.73
							 835.1 5.56 835.79 6.44 836.38 C6.66 836.53 6.88 836.66 7.11 836.8 L7.45 837 L7.81 837.19 L8.14 837.36
							 L8.5 837.52 C8.73 837.63 8.97 837.73 9.21 837.82 C10.19 838.21 11.2 838.48 12.2 838.64 C12.54 838.7
							 13.11 838.74 13.45 838.77 L13.45 841.89 L17.87 837.27 L13.45 832.64 Z" class="st9"/>
				<path d="M13.45 832.64 L13.45 833.79 L13.45 835.59 C13.27 835.57 12.36 835.44 12.2 835.4 C11.59 835.26 10.99 835.08
							 10.4 834.84 C10.21 834.77 10.02 834.69 9.83 834.6 L9.56 834.47 L9.27 834.33 L9.01 834.19 L8.74 834.04
							 C8.56 833.93 8.39 833.83 8.21 833.71 C7.51 833.26 6.87 832.72 6.26 832.12 C5.66 831.53 5.13 830.85 4.67
							 830.13 C4.19 829.4 3.8 828.62 3.5 827.81 C2.89 826.18 2.62 824.41 2.74 822.67 C2.86 820.94 3.37 819.25
							 4.18 817.76 C4.98 816.27 6.07 815 7.3 814.02 C7.92 813.53 8.56 813.11 9.22 812.76 C9.88 812.41 10.55
							 812.13 11.2 811.9 C12.53 811.46 13.82 811.26 14.97 811.23 C16.12 811.19 17.13 811.31 17.95 811.47 C18.77
							 811.62 19.4 811.83 19.83 811.97 C20.05 812.05 20.21 812.11 20.32 812.16 L20.48 812.22 L20.49 812.22
							 C20.56 812.25 20.64 812.22 20.68 812.15 C20.72 812.08 20.7 811.98 20.62 811.94 L20.46 811.85 C20.36
							 811.79 20.2 811.71 19.99 811.6 C19.57 811.39 18.95 811.1 18.11 810.83 C17.28 810.55 16.22 810.31 14.99
							 810.22 C13.75 810.13 12.32 810.21 10.82 810.58 C9.32 810.94 7.74 811.61 6.26 812.62 C4.78 813.63 3.4
							 815 2.33 816.67 C1.26 818.33 0.49 820.3 0.19 822.39 C0.04 823.44 -0 824.51 0.09 825.58 C0.18 826.66
							 0.38 827.72 0.71 828.76 C1.04 829.79 1.48 830.79 2.03 831.73 C2.59 832.66 3.25 833.53 3.99 834.32 C4.73
							 835.1 5.56 835.79 6.44 836.38 C6.66 836.53 6.88 836.66 7.11 836.8 L7.45 837 L7.81 837.19 L8.14 837.36
							 L8.5 837.52 C8.73 837.63 8.97 837.73 9.21 837.82 C10.19 838.21 11.2 838.48 12.2 838.64 C12.54 838.7
							 13.11 838.74 13.45 838.77 L13.45 841.89 L17.87 837.27" class="st10"/>
			</g>
			<g id="shape89-151" v:mID="89" v:groupContext="shape" transform="translate(5.18475,-8.7405)">
				<title>Sheet.89</title>
				<path d="M9.65 822.09 C4.17 822.09 0 826.53 0 832 C-0 836.54 3 840.37 7.22 841.55 L7.22 840.71 C7.22 840.33 7.48
							 839.98 7.84 839.83 C7.96 839.79 7.72 839.83 7.84 839.83 C8.09 839.83 8.4 839.86 8.58 840.04 L10.44 841.89
							 C15.55 841.49 19.59 837.21 19.59 832 C19.59 826.53 15.13 822.09 9.65 822.09 ZM2.26 832.84 C1.78 832.84
							 1.39 832.45 1.39 831.97 C1.39 831.49 1.78 831.1 2.26 831.1 C2.74 831.1 3.14 831.49 3.14 831.97 C3.14
							 832.45 2.74 832.84 2.26 832.84 ZM9.65 823.24 C10.14 823.24 10.53 823.63 10.53 824.12 C10.53 824.6 10.14
							 824.99 9.65 824.99 C9.17 824.99 8.78 824.6 8.78 824.12 C8.78 823.63 9.17 823.24 9.65 823.24 ZM14.84
							 837.03 L14.74 837.12 C14.11 837.75 13.1 837.75 12.47 837.12 L8.4 833.06 C8.04 832.71 8.23 832.23 8.27
							 831.77 L8.27 831.68 L8.27 828.02 C8.27 827.14 8.99 826.42 9.88 826.42 L10.15 826.42 C11.03 826.42 11.75
							 827.14 11.75 828.02 L11.75 831.21 L15.31 834.76 C15.94 835.39 15.46 836.4 14.84 837.03 ZM17.53 832.84
							 C17.05 832.84 16.66 832.45 16.66 831.97 C16.66 831.49 17.05 831.1 17.53 831.1 C18.01 831.1 18.4 831.49
							 18.4 831.97 C18.4 832.45 18.01 832.84 17.53 832.84 Z" class="st1"/>
			</g>
			<g id="shape87-153" v:mID="87" v:groupContext="groupContent">
				<v:textBlock v:margins="rect(0,0,0,0)" v:tabSpace="42.5197" v:verticalAlign="0"/>
				<v:textRect cx="12.3885" cy="847.292" width="60.29" height="10.8036"/>
				<text x="-16.85" y="849.99" class="st2" v:langID="2057"><v:paragraph v:horizAlign="1"/><v:tabList/>1 minute timer</text>			</g>
		</g>
		<g id="shape90-155" v:mID="90" v:groupContext="shape" v:layerMember="0" transform="translate(597.139,-658.35)">
			<title>Dynamic connector.90</title>
			<desc>Read JSON</desc>
			<v:textBlock v:margins="rect(4,4,4,4)" v:tabSpace="42.5197"/>
			<v:textRect cx="94.2102" cy="834.803" width="44.67" height="17.6036"/>
			<path d="M0 834.8 L188.42 834.8" class="st4"/>
			<rect v:rectContext="textBkgnd" x="76.7827" y="830.003" width="34.8552" height="9.59985" class="st6"/>
			<text x="76.78" y="837.2" class="st7" v:langID="2057"><v:paragraph v:horizAlign="1"/><v:tabList/>Read JSON</text>		</g>
		<g id="group91-162" transform="translate(788.972,-776.118)" v:mID="91" v:groupContext="group">
			<title>Scheduler.91</title>
			<desc>1 hour timer</desc>
			<g id="shape92-163" v:mID="92" v:groupContext="shape">
				<title>Sheet.92</title>
				<path d="M13.45 832.64 L13.45 833.79 L13.45 835.59 C13.27 835.57 12.36 835.44 12.2 835.4 C11.59 835.26 10.99 835.08
							 10.4 834.84 C10.21 834.77 10.02 834.69 9.83 834.6 L9.56 834.47 L9.27 834.33 L9.01 834.19 L8.74 834.04
							 C8.56 833.93 8.39 833.83 8.21 833.71 C7.51 833.26 6.87 832.72 6.26 832.12 C5.66 831.53 5.13 830.85 4.67
							 830.13 C4.19 829.4 3.8 828.62 3.5 827.81 C2.89 826.18 2.62 824.41 2.74 822.67 C2.86 820.94 3.37 819.25
							 4.18 817.76 C4.98 816.27 6.07 815 7.3 814.02 C7.92 813.53 8.56 813.11 9.22 812.76 C9.88 812.41 10.55
							 812.13 11.2 811.9 C12.53 811.46 13.82 811.26 14.97 811.23 C16.12 811.19 17.13 811.31 17.95 811.47 C18.77
							 811.62 19.4 811.83 19.83 811.97 C20.05 812.05 20.21 812.11 20.32 812.16 L20.48 812.22 L20.49 812.22
							 C20.56 812.25 20.64 812.22 20.68 812.15 C20.72 812.08 20.7 811.98 20.62 811.94 L20.46 811.85 C20.36
							 811.79 20.2 811.71 19.99 811.6 C19.57 811.39 18.95 811.1 18.11 810.83 C17.28 810.55 16.22 810.31 14.99
							 810.22 C13.75 810.13 12.32 810.21 10.82 810.58 C9.32 810.94 7.74 811.61 6.26 812.62 C4.78 813.63 3.4
							 815 2.33 816.67 C1.26 818.33 0.49 820.3 0.19 822.39 C0.04 823.44 -0 824.51 0.09 825.58 C0.18 826.66
							 0.38 827.72 0.71 828.76 C1.04 829.79 1.48 830.79 2.03 831.73 C2.59 832.66 3.25 833.53 3.99 834.32 C4.73
							 835.1 5.56 835.79 6.44 836.38 C6.66 836.53 6.88 836.66 7.11 836.8 L7.45 837 L7.81 837.19 L8.14 837.36
							 L8.5 837.52 C8.73 837.63 8.97 837.73 9.21 837.82 C10.19 838.21 11.2 838.48 12.2 838.64 C12.54 838.7
							 13.11 838.74 13.45 838.77 L13.45 841.89 L17.87 837.27 L13.45 832.64 Z" class="st9"/>
				<path d="M13.45 832.64 L13.45 833.79 L13.45 835.59 C13.27 835.57 12.36 835.44 12.2 835.4 C11.59 835.26 10.99 835.08
							 10.4 834.84 C10.21 834.77 10.02 834.69 9.83 834.6 L9.56 834.47 L9.27 834.33 L9.01 834.19 L8.74 834.04
							 C8.56 833.93 8.39 833.83 8.21 833.71 C7.51 833.26 6.87 832.72 6.26 832.12 C5.66 831.53 5.13 830.85 4.67
							 830.13 C4.19 829.4 3.8 828.62 3.5 827.81 C2.89 826.18 2.62 824.41 2.74 822.67 C2.86 820.94 3.37 819.25
							 4.18 817.76 C4.98 816.27 6.07 815 7.3 814.02 C7.92 813.53 8.56 813.11 9.22 812.76 C9.88 812.41 10.55
							 812.13 11.2 811.9 C12.53 811.46 13.82 811.26 14.97 811.23 C16.12 811.19 17.13 811.31 17.95 811.47 C18.77
							 811.62 19.4 811.83 19.83 811.97 C20.05 812.05 20.21 812.11 20.32 812.16 L20.48 812.22 L20.49 812.22
							 C20.56 812.25 20.64 812.22 20.68 812.15 C20.72 812.08 20.7 811.98 20.62 811.94 L20.46 811.85 C20.36
							 811.79 20.2 811.71 19.99 811.6 C19.57 811.39 18.95 811.1 18.11 810.83 C17.28 810.55 16.22 810.31 14.99
							 810.22 C13.75 810.13 12.32 810.21 10.82 810.58 C9.32 810.94 7.74 811.61 6.26 812.62 C4.78 813.63 3.4
							 815 2.33 816.67 C1.26 818.33 0.49 820.3 0.19 822.39 C0.04 823.44 -0 824.51 0.09 825.58 C0.18 826.66
							 0.38 827.72 0.71 828.76 C1.04 829.79 1.48 830.79 2.03 831.73 C2.59 832.66 3.25 833.53 3.99 834.32 C4.73
							 835.1 5.56 835.79 6.44 836.38 C6.66 836.53 6.88 836.66 7.11 836.8 L7.45 837 L7.81 837.19 L8.14 837.36
							 L8.5 837.52 C8.73 837.63 8.97 837.73 9.21 837.82 C10.19 838.21 11.2 838.48 12.2 838.64 C12.54 838.7
							 13.11 838.74 13.45 838.77 L13.45 841.89 L17.87 837.27" class="st10"/>
			</g>
			<g id="shape93-166" v:mID="93" v:groupContext="shape" transform="translate(5.18475,-8.7405)">
				<title>Sheet.93</title>
				<path d="M9.65 822.09 C4.17 822.09 0 826.53 0 832 C-0 836.54 3 840.37 7.22 841.55 L7.22 840.71 C7.22 840.33 7.48
							 839.98 7.84 839.83 C7.96 839.79 7.72 839.83 7.84 839.83 C8.09 839.83 8.4 839.86 8.58 840.04 L10.44 841.89
							 C15.55 841.49 19.59 837.21 19.59 832 C19.59 826.53 15.13 822.09 9.65 822.09 ZM2.26 832.84 C1.78 832.84
							 1.39 832.45 1.39 831.97 C1.39 831.49 1.78 831.1 2.26 831.1 C2.74 831.1 3.14 831.49 3.14 831.97 C3.14
							 832.45 2.74 832.84 2.26 832.84 ZM9.65 823.24 C10.14 823.24 10.53 823.63 10.53 824.12 C10.53 824.6 10.14
							 824.99 9.65 824.99 C9.17 824.99 8.78 824.6 8.78 824.12 C8.78 823.63 9.17 823.24 9.65 823.24 ZM14.84
							 837.03 L14.74 837.12 C14.11 837.75 13.1 837.75 12.47 837.12 L8.4 833.06 C8.04 832.71 8.23 832.23 8.27
							 831.77 L8.27 831.68 L8.27 828.02 C8.27 827.14 8.99 826.42 9.88 826.42 L10.15 826.42 C11.03 826.42 11.75
							 827.14 11.75 828.02 L11.75 831.21 L15.31 834.76 C15.94 835.39 15.46 836.4 14.84 837.03 ZM17.53 832.84
							 C17.05 832.84 16.66 832.45 16.66 831.97 C16.66 831.49 17.05 831.1 17.53 831.1 C18.01 831.1 18.4 831.49
							 18.4 831.97 C18.4 832.45 18.01 832.84 17.53 832.84 Z" class="st1"/>
			</g>
			<g id="shape91-168" v:mID="91" v:groupContext="groupContent">
				<v:textBlock v:margins="rect(0,0,0,0)" v:tabSpace="42.5197" v:verticalAlign="0"/>
				<v:textRect cx="12.3885" cy="847.292" width="51.01" height="10.8036"/>
				<text x="-12.21" y="849.99" class="st2" v:langID="2057"><v:paragraph v:horizAlign="1"/><v:tabList/>1 hour timer</text>			</g>
		</g>
		<g id="shape94-170" v:mID="94" v:groupContext="shape" v:layerMember="0" transform="translate(795.386,-760.069)">
			<title>Dynamic connector.94</title>
			<path d="M7.09 841.89 L7.09 921.9" class="st8"/>
		</g>
		<g id="shape95-175" v:mID="95" v:groupContext="shape" v:layerMember="0" transform="translate(817.162,-658.35)">
			<title>Dynamic connector.95</title>
			<desc>Queue message</desc>
			<v:textBlock v:margins="rect(4,4,4,4)" v:tabSpace="42.5197"/>
			<v:textRect cx="94.1295" cy="834.803" width="61.58" height="17.6036"/>
			<path d="M0 834.8 L188.26 834.8" class="st8"/>
			<rect v:rectContext="textBkgnd" x="68.2472" y="830.003" width="51.7648" height="9.59985" class="st6"/>
			<text x="68.25" y="837.2" class="st7" v:langID="2057"><v:paragraph v:horizAlign="1"/><v:tabList/>Queue message</text>		</g>
		<g id="shape96-182" v:mID="96" v:groupContext="shape" v:layerMember="0" transform="translate(1011.83,-631.848)">
			<title>Dynamic connector.96</title>
			<desc>Queue trigger</desc>
			<v:textBlock v:margins="rect(4,4,4,4)" v:tabSpace="42.5197"/>
			<v:textRect cx="7.08661" cy="912.314" width="54.98" height="17.6036"/>
			<path d="M7.09 841.89 L7.09 982.74" class="st8"/>
			<rect v:rectContext="textBkgnd" x="-15.495" y="907.515" width="45.1634" height="9.59985" class="st6"/>
			<text x="-15.49" y="914.71" class="st7" v:langID="2057"><v:paragraph v:horizAlign="1"/><v:tabList/>Queue trigger</text>		</g>
		<g id="shape97-189" v:mID="97" v:groupContext="shape" v:layerMember="0" transform="translate(1011.83,-469.896)">
			<title>Dynamic connector.97</title>
			<desc>Store hashflag image</desc>
			<v:textBlock v:margins="rect(4,4,4,4)" v:tabSpace="42.5197"/>
			<v:textRect cx="7.08661" cy="927.465" width="77.82" height="17.6036"/>
			<path d="M7.09 841.89 L7.09 1013.04" class="st8"/>
			<rect v:rectContext="textBkgnd" x="-26.9168" y="922.666" width="68.007" height="9.59985" class="st13"/>
			<text x="-26.92" y="929.87" class="st7" v:langID="2057"><v:paragraph v:horizAlign="1"/><v:tabList/>Store hashflag image</text>		</g>
		<g id="shape47-196" v:mID="47" v:groupContext="shape" transform="translate(1003.05,-461.749)">
			<title>Azure Functions (nc).47</title>
			<desc>StoreHashflagImage function</desc>
			<v:textBlock v:margins="rect(0,0,0,0)" v:tabSpace="42.5197"/>
			<v:textRect cx="13.2368" cy="855.765" width="82.34" height="29.25"/>
			<path d="M23.6 812.64 L13.94 812.64 L8.73 827.31 L15.08 827.36 L10.12 841.89 L23.8 822.51 L17.16 822.51 L23.6 812.64
						 ZM0.2 827.46 L1.74 829.2 L1.79 829.25 L8.73 835.89 C8.98 836.14 9.53 836.19 9.82 835.89 C10.12 835.59 10.12
						 835.05 9.82 834.75 L2.63 827.46 C2.34 827.17 2.34 826.62 2.63 826.32 L9.67 819.28 C10.07 818.99 9.97 818.44
						 9.67 818.14 C9.33 817.85 8.88 817.85 8.58 818.14 L1.74 824.79 L0.2 826.32 C-0.04 826.62 -0.09 827.17 0.2
						 827.46 ZM31.54 827.46 C31.83 827.17 31.79 826.62 31.54 826.32 L30 824.79 L23.16 818.14 C22.86 817.85 22.42
						 817.85 22.07 818.14 C21.77 818.44 21.67 818.99 22.07 819.28 L29.26 826.32 C29.55 826.62 29.55 827.17 29.26
						 827.46 L21.92 834.75 C21.62 835.05 21.62 835.59 21.92 835.89 C22.22 836.19 22.76 836.14 23.01 835.89 L29.8
						 829.15 L29.85 829.1 L31.54 827.46 Z" class="st1"/>
			<text x="-26.98" y="853.06" class="st2" v:langID="2057"><v:paragraph v:horizAlign="1"/><v:tabList/>StoreHashflagImage <tspan
						x="-3.14" dy="1.2em" class="st3">function</tspan></text>		</g>
		<g id="shape99-200" v:mID="99" v:groupContext="shape" v:layerMember="0" transform="translate(1003.12,-469.287)">
			<title>Dynamic connector.99</title>
			<desc>Queue message</desc>
			<v:textBlock v:margins="rect(4,4,4,4)" v:tabSpace="42.5197"/>
			<v:textRect cx="-94.1295" cy="834.803" width="61.58" height="17.6036"/>
			<path d="M0 834.8 L-188.26 834.8" class="st8"/>
			<rect v:rectContext="textBkgnd" x="-120.012" y="830.003" width="51.7648" height="9.59985" class="st6"/>
			<text x="-120.01" y="837.2" class="st7" v:langID="2057"><v:paragraph v:horizAlign="1"/><v:tabList/>Queue message</text>		</g>
		<g id="shape100-207" v:mID="100" v:groupContext="shape" v:layerMember="0" transform="translate(787.861,-469.287)">
			<title>Dynamic connector.100</title>
			<desc>Queue trigger</desc>
			<v:textBlock v:margins="rect(4,4,4,4)" v:tabSpace="42.5197"/>
			<v:textRect cx="-94.1295" cy="834.803" width="54.98" height="17.6036"/>
			<path d="M0 834.8 L-188.26 834.8" class="st8"/>
			<rect v:rectContext="textBkgnd" x="-116.711" y="830.003" width="45.1634" height="9.59985" class="st13"/>
			<text x="-116.71" y="837.2" class="st7" v:langID="2057"><v:paragraph v:horizAlign="1"/><v:tabList/>Queue trigger</text>		</g>
		<g id="shape101-214" v:mID="101" v:groupContext="shape" v:layerMember="0" transform="translate(594.649,-471.43)">
			<title>Dynamic connector.101</title>
			<desc>Fetch hashflag image</desc>
			<v:textBlock v:margins="rect(4,4,4,4)" v:tabSpace="42.5197"/>
			<v:textRect cx="204.261" cy="934.982" width="78.4" height="17.6036"/>
			<path d="M0 841.89 L408.52 1028.08" class="st8"/>
			<rect v:rectContext="textBkgnd" x="169.969" y="930.183" width="68.5849" height="9.59985" class="st13"/>
			<text x="169.97" y="937.38" class="st7" v:langID="2057"><v:paragraph v:horizAlign="1"/><v:tabList/>Fetch hashflag image</text>		</g>
		<g id="shape102-221" v:mID="102" v:groupContext="shape" v:layerMember="0" transform="translate(576.714,-469.896)">
			<title>Dynamic connector.102</title>
			<desc>Store hero image</desc>
			<v:textBlock v:margins="rect(4,4,4,4)" v:tabSpace="42.5197"/>
			<v:textRect cx="7.08661" cy="926.432" width="65.77" height="17.6036"/>
			<path d="M7.09 841.89 L7.09 1010.97" class="st8"/>
			<rect v:rectContext="textBkgnd" x="-20.8915" y="921.632" width="55.9564" height="9.59985" class="st13"/>
			<text x="-20.89" y="928.83" class="st7" v:langID="2057"><v:paragraph v:horizAlign="1"/><v:tabList/>Store hero image</text>		</g>
		<g id="shape103-228" v:mID="103" v:groupContext="shape" v:layerMember="0" transform="translate(567.999,-469.287)">
			<title>Dynamic connector.103</title>
			<desc>Queue message</desc>
			<v:textBlock v:margins="rect(4,4,4,4)" v:tabSpace="42.5197"/>
			<v:textRect cx="-94.1295" cy="834.803" width="61.58" height="17.6036"/>
			<path d="M0 834.8 L-188.26 834.8" class="st8"/>
			<rect v:rectContext="textBkgnd" x="-120.012" y="830.003" width="51.7648" height="9.59985" class="st6"/>
			<text x="-120.01" y="837.2" class="st7" v:langID="2057"><v:paragraph v:horizAlign="1"/><v:tabList/>Queue message</text>		</g>
		<g id="shape104-235" v:mID="104" v:groupContext="shape" v:layerMember="0" transform="translate(155.495,-469.287)">
			<title>Dynamic connector.104</title>
			<desc>Read queue</desc>
			<v:textBlock v:margins="rect(4,4,4,4)" v:tabSpace="42.5197"/>
			<v:textRect cx="98.6223" cy="834.803" width="48.56" height="17.6036"/>
			<path d="M0 834.8 L197.24 834.8" class="st8"/>
			<rect v:rectContext="textBkgnd" x="79.2535" y="830.003" width="38.7378" height="9.59985" class="st6"/>
			<text x="79.25" y="837.2" class="st7" v:langID="2057"><v:paragraph v:horizAlign="1"/><v:tabList/>Read queue</text>		</g>
		<g id="shape105-242" v:mID="105" v:groupContext="shape" v:layerMember="0" transform="translate(133.719,-304.186)">
			<title>Dynamic connector.105</title>
			<path d="M7.09 841.89 L7.09 674.61" class="st8"/>
		</g>
		<g id="shape106-247" v:mID="106" v:groupContext="shape" v:layerMember="0" transform="translate(132.778,-490.999)">
			<title>Dynamic connector.106</title>
			<desc>Tweet hero image</desc>
			<v:textBlock v:margins="rect(4,4,4,4)" v:tabSpace="42.5197"/>
			<v:textRect cx="7.08661" cy="770.759" width="68.69" height="17.6036"/>
			<path d="M7.09 841.89 L7.09 699.63" class="st8"/>
			<rect v:rectContext="textBkgnd" x="-22.3484" y="765.959" width="58.8702" height="9.59985" class="st13"/>
			<text x="-22.35" y="773.16" class="st7" v:langID="2057"><v:paragraph v:horizAlign="1"/><v:tabList/>Tweet hero image</text>		</g>
		<g id="shape107-254" v:mID="107" v:groupContext="shape" v:layerMember="0" transform="translate(150.651,-471.538)">
			<title>Dynamic connector.107</title>
			<path d="M0 841.89 L417.4 1026.12" class="st8"/>
		</g>
		<g id="shape127-259" v:mID="127" v:groupContext="shape" transform="translate(273.228,-372.843)">
			<title>Sheet.127</title>
			<desc>Fetch hero image</desc>
			<v:textBlock v:margins="rect(4,4,4,4)" v:tabSpace="42.5197"/>
			<v:textRect cx="76" cy="831.89" width="152" height="20"/>
			<rect x="0" y="821.89" width="152" height="20" class="st14"/>
			<text x="47.73" y="834.29" class="st7" v:langID="2057"><v:paragraph v:horizAlign="1"/><v:tabList/>Fetch hero image</text>		</g>
	</g>
</svg>
